<svg width="40" height="40" viewBox="0 0 40 40" fill="none" xmlns="http://www.w3.org/2000/svg">
<path d="M20 4C18.8938 4 18 4.89375 18 6V6.2C13.4375 7.125 10 11.1625 10 16V17.3563C10 20.3625 8.975 23.2812 7.1 25.6313L6.4875 26.3937C6.16875 26.7875 6 27.275 6 27.7812C6 29.0063 6.99375 30 8.21875 30H31.775C33 30 33.9938 29.0063 33.9938 27.7812C33.9938 27.275 33.825 26.7875 33.5062 26.3937L32.8937 25.6313C31.025 23.2812 30 20.3625 30 17.3563V16C30 11.1625 26.5625 7.125 22 6.2V6C22 4.89375 21.1062 4 20 4ZM16.125 33C16.5688 34.725 18.1375 36 20 36C21.8625 36 23.4312 34.725 23.875 33H16.125Z" fill="#55128A"/>
</svg>
