<svg width="24" height="24" viewBox="0 0 24 24" fill="none" xmlns="http://www.w3.org/2000/svg">
<path d="M15.7836 16.8004C16.0573 15.9641 16.6048 15.2066 17.2236 14.5541C18.4498 13.2641 19.1998 11.5204 19.1998 9.60039C19.1998 5.62539 15.9748 2.40039 11.9998 2.40039C8.0248 2.40039 4.7998 5.62539 4.7998 9.60039C4.7998 11.5204 5.5498 13.2641 6.77605 14.5541C7.3948 15.2066 7.94605 15.9641 8.21606 16.8004H15.7798H15.7836ZM15.5998 18.6004H8.3998V19.2004C8.3998 20.8579 9.7423 22.2004 11.3998 22.2004H12.5998C14.2573 22.2004 15.5998 20.8579 15.5998 19.2004V18.6004ZM11.6998 6.60039C10.2073 6.60039 8.9998 7.80789 8.9998 9.30039C8.9998 9.79914 8.59855 10.2004 8.0998 10.2004C7.60105 10.2004 7.1998 9.79914 7.1998 9.30039C7.1998 6.81414 9.21355 4.80039 11.6998 4.80039C12.1986 4.80039 12.5998 5.20164 12.5998 5.70039C12.5998 6.19914 12.1986 6.60039 11.6998 6.60039Z" fill="#55128A"/>
</svg>
