<svg width="24" height="24" viewBox="0 0 24 24" fill="none" xmlns="http://www.w3.org/2000/svg">
<circle cx="12" cy="12" r="12" fill="white"/>
<path d="M17.8833 10.8249H17.4V10.8H12V13.2H15.3909C14.8962 14.5971 13.5669 15.6 12 15.6C10.0119 15.6 8.4 13.9881 8.4 12C8.4 10.0119 10.0119 8.4 12 8.4C12.9177 8.4 13.7526 8.7462 14.3883 9.3117L16.0854 7.6146C15.0138 6.6159 13.5804 6 12 6C8.6865 6 6 8.6865 6 12C6 15.3135 8.6865 18 12 18C15.3135 18 18 15.3135 18 12C18 11.5977 17.9586 11.205 17.8833 10.8249Z" fill="#FFC107"/>
<path d="M6.69189 9.2073L8.66319 10.653C9.19659 9.3324 10.4884 8.4 12.0001 8.4C12.9178 8.4 13.7527 8.7462 14.3884 9.3117L16.0855 7.6146C15.0139 6.6159 13.5805 6 12.0001 6C9.69549 6 7.69689 7.3011 6.69189 9.2073Z" fill="#FF3D00"/>
<path d="M11.9999 18.0006C13.5497 18.0006 14.9579 17.4075 16.0226 16.443L14.1656 14.8716C13.543 15.3451 12.7822 15.6012 11.9999 15.6006C10.4393 15.6006 9.11425 14.6055 8.61505 13.2168L6.65845 14.7243C7.65145 16.6674 9.66805 18.0006 11.9999 18.0006Z" fill="#4CAF50"/>
<path d="M17.8833 10.8257H17.4V10.8008H12V13.2008H15.3909C15.1543 13.8657 14.728 14.4467 14.1648 14.8721L14.1657 14.8715L16.0227 16.4429C15.8913 16.5623 18 15.0008 18 12.0008C18 11.5985 17.9586 11.2058 17.8833 10.8257Z" fill="#1976D2"/>
</svg>
