<svg width="32" height="29" viewBox="0 0 32 29" fill="none" xmlns="http://www.w3.org/2000/svg">
<mask id="mask0_214_5253" style="mask-type:luminance" maskUnits="userSpaceOnUse" x="0" y="0" width="32" height="29">
<path d="M19.3494 9.51184C19.014 5.51184 15.0165 2.25142 10.8633 2.26835C6.2531 2.29309 2.59661 5.83345 2.46501 10.2006L2.98575 27.3452C3.00415 27.9715 2.46926 28.4936 1.78862 28.5105C1.10798 28.5275 0.540548 28.0353 0.522153 27.409L0 10.2345C0 10.2137 0 10.1928 0 10.1759C0.14575 4.69022 4.76588 0.0300676 10.8506 0.000119598C16.0509 -0.0246201 20.9427 3.79179 21.7266 8.68502C24.3643 8.94804 26.8236 10.1225 28.6604 11.7801C30.6613 13.5874 32.014 16.0431 31.9999 18.6733C31.973 24.0717 27.1548 28.4272 21.1507 28.4558H21.1465L6.04508 28.4819C5.12813 28.4819 4.37957 27.8139 4.35693 26.9702L3.89421 10.2137C3.89421 10.1928 3.89421 10.1681 3.89421 10.1473C4.01166 6.94804 6.80779 3.70064 10.7912 3.67981C14.6981 3.66288 17.6796 6.41809 17.8027 10.0887C17.8027 10.0887 17.8027 10.0887 17.8027 10.0926L17.8876 12.5014L21.2285 12.56C25.1992 12.5978 27.9981 15.3829 28.2118 18.7527C28.2161 18.7775 28.2161 18.7983 28.2161 18.823C28.1977 22.3855 24.7449 24.978 21.1691 24.9988C21.155 24.9988 21.1465 24.9988 21.1323 24.9988L9.79779 24.7488C8.89499 24.728 8.16341 24.06 8.14077 23.2293L7.78276 10.1928C7.78276 10.185 7.78276 10.172 7.78276 10.159C7.79125 8.64335 9.12564 7.41158 10.7728 7.40377C12.4878 7.39595 13.7642 8.71106 13.9227 10.1759C13.9269 10.2058 13.9269 10.2306 13.9269 10.2592L14.0854 16.2345L21.1833 16.1512C21.1875 16.1512 21.1875 16.1512 21.1918 16.1512C22.8077 16.1433 24.186 17.3126 24.1775 18.84C24.169 20.3608 22.7978 21.5249 21.1918 21.5379H21.1875L13.0199 21.6173C12.3392 21.6251 11.7803 21.1199 11.776 20.4936C11.7718 19.8673 12.3166 19.3543 12.9972 19.3491L21.1691 19.271H21.1734C21.5045 19.2657 21.7097 19.0366 21.7097 18.8322C21.7097 18.6394 21.5271 18.4233 21.2059 18.4233H21.2002L13.2731 18.5144C12.3887 18.5236 11.6586 17.8751 11.6359 17.0613L11.4534 10.3686C11.3855 9.88423 11.0006 9.67069 10.777 9.6746C10.4912 9.6746 10.2464 9.89205 10.2421 10.159L10.5831 22.4975L21.1649 22.7319C23.5874 22.7111 25.7072 20.9572 25.7425 18.8491C25.5841 16.5978 23.7601 14.853 21.1918 14.8322C21.1875 14.8322 21.1833 14.8322 21.1776 14.8322L17.0259 14.7566C16.1683 14.7436 15.4693 14.1095 15.4424 13.3165L15.3292 10.1642V10.159C15.2471 7.64986 13.2915 5.93371 10.7954 5.94673C8.38699 5.95845 6.44837 7.9884 6.34932 10.1889L6.79789 26.2098L21.1323 26.185H21.138C25.8331 26.1603 29.5094 22.7736 29.532 18.6603C29.5405 16.7605 28.5571 14.8647 26.9326 13.3999C25.3081 11.9337 23.1389 10.9819 20.9201 10.9025C20.0852 10.8738 19.4088 10.2723 19.3451 9.50793L19.3494 9.51184Z" fill="white"/>
</mask>
<g mask="url(#mask0_214_5253)">
<mask id="mask1_214_5253" style="mask-type:luminance" maskUnits="userSpaceOnUse" x="-1" y="-1" width="34" height="30">
<path d="M32.3302 -0.0488281H-0.272461V28.6178H32.3302V-0.0488281Z" fill="white"/>
</mask>
<g mask="url(#mask1_214_5253)">
<mask id="mask2_214_5253" style="mask-type:luminance" maskUnits="userSpaceOnUse" x="0" y="-1" width="32" height="30">
<path d="M0.00292969 -0.0351562H31.9674V28.5247H0.00292969V-0.0351562Z" fill="white"/>
</mask>
<g mask="url(#mask2_214_5253)">
<mask id="mask3_214_5253" style="mask-type:luminance" maskUnits="userSpaceOnUse" x="0" y="0" width="33" height="29">
<path d="M19.3523 9.51184C19.0169 5.51184 15.0194 2.25142 10.8663 2.26835C6.25603 2.29309 2.59954 5.83345 2.46794 10.2006L2.98868 27.3452C3.00708 27.9715 2.47219 28.4936 1.79155 28.5105C1.11091 28.5275 0.543478 28.0353 0.525082 27.409L0.00292969 10.2345C0.00292969 10.2137 0.00292969 10.1928 0.00292969 10.1759C0.148679 4.69022 4.76881 0.0300676 10.8535 0.000119596C16.0538 -0.0246199 20.9456 3.79179 21.7296 8.68502C24.3672 8.94804 26.8266 10.1225 28.6633 11.7801C30.6642 13.5874 32.017 16.0431 32.0028 18.6733C31.9759 24.0717 27.1577 28.4272 21.1536 28.4558H21.1494L6.04801 28.4819C5.13106 28.4819 4.3825 27.8139 4.35986 26.9702L3.89714 10.2137C3.89714 10.1928 3.89714 10.1681 3.89714 10.1473C4.01459 6.94804 6.81072 3.70064 10.7941 3.67981C14.701 3.66288 17.6825 6.41809 17.8056 10.0887C17.8056 10.0887 17.8056 10.0887 17.8056 10.0926L17.8905 12.5014L21.2315 12.56C25.2021 12.5978 28.0011 15.3829 28.2147 18.7527C28.219 18.7775 28.219 18.7983 28.219 18.823C28.2006 22.3855 24.7479 24.978 21.172 24.9988C21.1579 24.9988 21.1494 24.9988 21.1353 24.9988L9.80072 24.7488C8.89792 24.728 8.16634 24.06 8.1437 23.2293L7.78569 10.1928C7.78569 10.185 7.78569 10.172 7.78569 10.159C7.79418 8.64335 9.12857 7.41158 10.7757 7.40377C12.4907 7.39595 13.7671 8.71106 13.9256 10.1759C13.9298 10.2058 13.9298 10.2306 13.9298 10.2592L14.0883 16.2345L21.1862 16.1512C21.1904 16.1512 21.1904 16.1512 21.1947 16.1512C22.8107 16.1433 24.1889 17.3126 24.1804 18.84C24.1719 20.3608 22.8008 21.5249 21.1947 21.5379H21.1904L13.0228 21.6173C12.3421 21.6251 11.7832 21.1199 11.779 20.4936C11.7747 19.8673 12.3195 19.3543 13.0001 19.3491L21.172 19.271H21.1763C21.5074 19.2657 21.7126 19.0366 21.7126 18.8322C21.7126 18.6394 21.5301 18.4233 21.2088 18.4233H21.2032L13.2761 18.5144C12.3917 18.5236 11.6615 17.8751 11.6389 17.0613L11.4563 10.3686C11.3884 9.88423 11.0035 9.67069 10.7799 9.6746C10.4941 9.6746 10.2493 9.89205 10.245 10.159L10.5861 22.4975L21.1678 22.7319C23.5904 22.7111 25.7101 20.9572 25.7455 18.8491C25.587 16.5978 23.763 14.853 21.1947 14.8322C21.1904 14.8322 21.1862 14.8322 21.1805 14.8322L17.0288 14.7566C16.1713 14.7436 15.4722 14.1095 15.4453 13.3165L15.3321 10.1642V10.159C15.2501 7.64986 13.2945 5.93371 10.7983 5.94673C8.38992 5.95845 6.4513 7.9884 6.35225 10.1889L6.80082 26.2098L21.1353 26.185H21.1409C25.836 26.1603 29.5123 22.7736 29.535 18.6603C29.5435 16.7605 28.56 14.8647 26.9355 13.3999C25.3111 11.9337 23.1418 10.9819 20.923 10.9025C20.0881 10.8738 19.4117 10.2723 19.348 9.50793L19.3523 9.51184Z" fill="white"/>
</mask>
<g mask="url(#mask3_214_5253)">
<path d="M0.00292969 0H31.9547V28.5104H0.00292969V0Z" fill="#55128A"/>
</g>
</g>
</g>
</g>
</svg>
