<svg width="24" height="24" viewBox="0 0 24 24" fill="none" xmlns="http://www.w3.org/2000/svg">
<path d="M13.2001 13.0654C15.6038 12.5216 17.4001 10.3691 17.4001 7.80039C17.4001 4.81914 14.9813 2.40039 12.0001 2.40039C9.01885 2.40039 6.6001 4.81914 6.6001 7.80039C6.6001 10.3691 8.39635 12.5216 10.8001 13.0654V20.4004C10.8001 21.0641 11.3363 21.6004 12.0001 21.6004C12.6638 21.6004 13.2001 21.0641 13.2001 20.4004V13.0654ZM12.3001 6.00039C11.1413 6.00039 10.2001 6.94164 10.2001 8.10039C10.2001 8.59914 9.79885 9.00039 9.3001 9.00039C8.80135 9.00039 8.4001 8.59914 8.4001 8.10039C8.4001 5.94789 10.1476 4.20039 12.3001 4.20039C12.7988 4.20039 13.2001 4.60164 13.2001 5.10039C13.2001 5.59914 12.7988 6.00039 12.3001 6.00039Z" fill="#55128A"/>
</svg>
