<svg width="24" height="24" viewBox="0 0 24 24" fill="none" xmlns="http://www.w3.org/2000/svg">
<path d="M7.1998 2.40039C5.87605 2.40039 4.7998 3.47664 4.7998 4.80039V19.2004C4.7998 20.5241 5.87605 21.6004 7.1998 21.6004H16.7998C18.1236 21.6004 19.1998 20.5241 19.1998 19.2004V4.80039C19.1998 3.47664 18.1236 2.40039 16.7998 2.40039H7.1998ZM10.7998 15.6004H13.1998C14.8573 15.6004 16.1998 16.9429 16.1998 18.6004C16.1998 18.9304 15.9298 19.2004 15.5998 19.2004H8.3998C8.0698 19.2004 7.7998 18.9304 7.7998 18.6004C7.7998 16.9429 9.1423 15.6004 10.7998 15.6004ZM9.8998 12.0004C9.8998 10.8416 10.8411 9.90039 11.9998 9.90039C13.1586 9.90039 14.0998 10.8416 14.0998 12.0004C14.0998 13.1591 13.1586 14.1004 11.9998 14.1004C10.8411 14.1004 9.8998 13.1591 9.8998 12.0004ZM10.4998 4.80039H13.4998C13.9986 4.80039 14.3998 5.20164 14.3998 5.70039C14.3998 6.19914 13.9986 6.60039 13.4998 6.60039H10.4998C10.0011 6.60039 9.5998 6.19914 9.5998 5.70039C9.5998 5.20164 10.0011 4.80039 10.4998 4.80039Z" fill="#55128A"/>
</svg>
