<svg width="16" height="16" viewBox="0 0 16 16" fill="none" xmlns="http://www.w3.org/2000/svg">
<path d="M8.7999 8.70961C10.4024 8.34711 11.5999 6.91211 11.5999 5.19961C11.5999 3.21211 9.9874 1.59961 7.9999 1.59961C6.0124 1.59961 4.3999 3.21211 4.3999 5.19961C4.3999 6.91211 5.5974 8.34711 7.1999 8.70961V13.5996C7.1999 14.0421 7.5574 14.3996 7.9999 14.3996C8.4424 14.3996 8.7999 14.0421 8.7999 13.5996V8.70961ZM8.1999 3.99961C7.4274 3.99961 6.7999 4.62711 6.7999 5.39961C6.7999 5.73211 6.5324 5.99961 6.1999 5.99961C5.8674 5.99961 5.5999 5.73211 5.5999 5.39961C5.5999 3.96461 6.7649 2.79961 8.1999 2.79961C8.5324 2.79961 8.7999 3.06711 8.7999 3.39961C8.7999 3.73211 8.5324 3.99961 8.1999 3.99961Z" fill="#FF7415"/>
</svg>
