<svg width="16" height="16" viewBox="0 0 16 16" fill="none" xmlns="http://www.w3.org/2000/svg">
<path d="M3.19977 6.31461C3.19977 3.70961 5.34977 1.59961 7.99977 1.59961C10.6498 1.59961 12.7998 3.70961 12.7998 6.31461C12.7998 9.29711 9.79477 12.8721 8.53977 14.2346C8.24477 14.5546 7.75227 14.5546 7.45727 14.2346C6.20227 12.8721 3.19727 9.29711 3.19727 6.31461H3.19977ZM7.99977 7.99961C8.88227 7.99961 9.59977 7.28211 9.59977 6.39961C9.59977 5.51711 8.88227 4.79961 7.99977 4.79961C7.11727 4.79961 6.39977 5.51711 6.39977 6.39961C6.39977 7.28211 7.11727 7.99961 7.99977 7.99961Z" fill="#FF7415"/>
</svg>
