<svg width="240" height="240" viewBox="0 0 240 240" fill="none" xmlns="http://www.w3.org/2000/svg">
<mask id="mask0_77_1724" style="mask-type:luminance" maskUnits="userSpaceOnUse" x="89" y="59" width="60" height="58">
<path d="M89.8408 59.333H148.867V116.666H89.8408V59.333Z" fill="white"/>
</mask>
<g mask="url(#mask0_77_1724)">
<mask id="mask1_77_1724" style="mask-type:luminance" maskUnits="userSpaceOnUse" x="89" y="59" width="60" height="58">
<path d="M125.45 78.4534C124.833 70.4534 117.476 63.9325 109.833 63.9664C101.349 64.0159 94.6195 71.0966 94.3773 79.831L95.3356 114.12C95.3695 115.373 94.3851 116.417 93.1325 116.451C91.8799 116.485 90.8356 115.5 90.8018 114.248L89.8408 79.8987C89.8408 79.857 89.8408 79.8153 89.8408 79.7815C90.109 68.8101 98.6117 59.4898 109.81 59.4299C119.38 59.3804 128.382 67.0133 129.825 76.7997C134.679 77.3258 139.205 79.6747 142.586 82.9898C146.268 86.6044 148.757 91.5159 148.731 96.7763C148.682 107.573 139.815 116.284 128.765 116.341H128.757L100.966 116.393C99.2783 116.393 97.9007 115.058 97.859 113.37L97.0075 79.857C97.0075 79.8153 97.0075 79.7659 97.0075 79.7242C97.2236 73.3258 102.369 66.831 109.7 66.7893C116.89 66.7554 122.377 72.2659 122.604 79.607C122.604 79.607 122.604 79.607 122.604 79.6148L122.76 84.4325L128.909 84.5497C136.216 84.6252 141.367 90.1956 141.76 96.9351C141.768 96.9846 141.768 97.0263 141.768 97.0758C141.734 104.201 135.38 109.386 128.799 109.427C128.773 109.427 128.757 109.427 128.731 109.427L107.872 108.927C106.211 108.886 104.864 107.55 104.823 105.888L104.164 79.8153C104.164 79.7997 104.164 79.7737 104.164 79.7476C104.179 76.7164 106.635 74.2528 109.666 74.2372C112.823 74.2216 115.172 76.8518 115.463 79.7815C115.471 79.8414 115.471 79.8909 115.471 79.9482L115.763 91.8987L128.825 91.732C128.833 91.732 128.833 91.732 128.841 91.732C131.815 91.7164 134.351 94.0549 134.336 97.1096C134.32 100.151 131.797 102.479 128.841 102.505H128.833L113.802 102.664C112.549 102.68 111.521 101.67 111.513 100.417C111.505 99.1643 112.507 98.1383 113.76 98.1278L128.799 97.9716H128.807C129.416 97.9612 129.794 97.5028 129.794 97.094C129.794 96.7086 129.458 96.2763 128.867 96.2763H128.856L114.268 96.4586C112.64 96.4768 111.297 95.1799 111.255 93.5523L110.919 80.1669C110.794 79.1982 110.086 78.7711 109.674 78.7789C109.148 78.7789 108.698 79.2138 108.69 79.7476L109.317 104.425L128.791 104.893C133.25 104.852 137.151 101.344 137.216 97.1278C136.924 92.6252 133.567 89.1357 128.841 89.094C128.833 89.094 128.825 89.094 128.815 89.094L121.174 88.9429C119.596 88.9169 118.31 87.6487 118.26 86.0627L118.052 79.7581V79.7476C117.901 74.7294 114.302 71.2971 109.708 71.3232C105.276 71.3466 101.708 75.4065 101.526 79.8075L102.351 111.849L128.731 111.8H128.742C137.382 111.75 144.148 104.977 144.19 96.7502C144.205 92.9508 142.396 89.1591 139.406 86.2294C136.416 83.2971 132.424 81.3935 128.341 81.2346C126.804 81.1773 125.56 79.9742 125.442 78.4456L125.45 78.4534Z" fill="white"/>
</mask>
<g mask="url(#mask1_77_1724)">
<mask id="mask2_77_1724" style="mask-type:luminance" maskUnits="userSpaceOnUse" x="89" y="59" width="61" height="58">
<path d="M149.333 59.333H89.333V116.666H149.333V59.333Z" fill="white"/>
</mask>
<g mask="url(#mask2_77_1724)">
<mask id="mask3_77_1724" style="mask-type:luminance" maskUnits="userSpaceOnUse" x="89" y="59" width="60" height="58">
<path d="M89.8408 59.3594H148.666V116.479H89.8408V59.3594Z" fill="white"/>
</mask>
<g mask="url(#mask3_77_1724)">
<mask id="mask4_77_1724" style="mask-type:luminance" maskUnits="userSpaceOnUse" x="89" y="59" width="60" height="58">
<path d="M125.45 78.4534C124.833 70.4534 117.476 63.9325 109.833 63.9664C101.349 64.0159 94.6195 71.0966 94.3773 79.831L95.3356 114.12C95.3695 115.373 94.3851 116.417 93.1325 116.451C91.8799 116.485 90.8356 115.5 90.8018 114.248L89.8408 79.8987C89.8408 79.857 89.8408 79.8153 89.8408 79.7815C90.109 68.8101 98.6117 59.4898 109.81 59.4299C119.38 59.3804 128.382 67.0133 129.825 76.7997C134.679 77.3258 139.205 79.6747 142.586 82.9898C146.268 86.6044 148.757 91.5159 148.731 96.7763C148.682 107.573 139.815 116.284 128.765 116.341H128.757L100.966 116.393C99.2783 116.393 97.9007 115.058 97.859 113.37L97.0075 79.857C97.0075 79.8153 97.0075 79.7659 97.0075 79.7242C97.2236 73.3258 102.369 66.831 109.7 66.7893C116.89 66.7554 122.377 72.2659 122.604 79.607C122.604 79.607 122.604 79.607 122.604 79.6148L122.76 84.4325L128.909 84.5497C136.216 84.6252 141.367 90.1956 141.76 96.9351C141.768 96.9846 141.768 97.0263 141.768 97.0758C141.734 104.201 135.38 109.386 128.799 109.427C128.773 109.427 128.757 109.427 128.731 109.427L107.872 108.927C106.211 108.886 104.864 107.55 104.823 105.888L104.164 79.8153C104.164 79.7997 104.164 79.7737 104.164 79.7476C104.179 76.7164 106.635 74.2528 109.666 74.2372C112.823 74.2216 115.172 76.8518 115.463 79.7815C115.471 79.8414 115.471 79.8909 115.471 79.9482L115.763 91.8987L128.825 91.732C128.833 91.732 128.833 91.732 128.841 91.732C131.815 91.7164 134.351 94.0549 134.336 97.1096C134.32 100.151 131.797 102.479 128.841 102.505H128.833L113.802 102.664C112.549 102.68 111.521 101.67 111.513 100.417C111.505 99.1643 112.507 98.1383 113.76 98.1278L128.799 97.9716H128.807C129.416 97.9612 129.794 97.5028 129.794 97.094C129.794 96.7086 129.458 96.2763 128.867 96.2763H128.856L114.268 96.4586C112.64 96.4768 111.297 95.1799 111.255 93.5523L110.919 80.1669C110.794 79.1982 110.086 78.7711 109.674 78.7789C109.148 78.7789 108.698 79.2138 108.69 79.7476L109.317 104.425L128.791 104.893C133.25 104.852 137.151 101.344 137.216 97.1278C136.924 92.6252 133.567 89.1357 128.841 89.094C128.833 89.094 128.825 89.094 128.815 89.094L121.174 88.9429C119.596 88.9169 118.31 87.6487 118.26 86.0627L118.052 79.7581V79.7476C117.901 74.7294 114.302 71.2971 109.708 71.3232C105.276 71.3466 101.708 75.4065 101.526 79.8075L102.351 111.849L128.731 111.8H128.742C137.382 111.75 144.148 104.977 144.19 96.7502C144.205 92.9508 142.396 89.1591 139.406 86.2294C136.416 83.2971 132.424 81.3935 128.341 81.2346C126.804 81.1773 125.56 79.9742 125.442 78.4456L125.45 78.4534Z" fill="white"/>
</mask>
<g mask="url(#mask4_77_1724)">
<path d="M89.8408 59.4297H148.643V116.451H89.8408V59.4297Z" fill="#FAFAFA"/>
</g>
</g>
</g>
</g>
</g>
<mask id="mask5_77_1724" style="mask-type:luminance" maskUnits="userSpaceOnUse" x="83" y="169" width="7" height="8">
<path d="M83.5107 169.839H89.5758V176.37H83.5107V169.839Z" fill="white"/>
</mask>
<g mask="url(#mask5_77_1724)">
<mask id="mask6_77_1724" style="mask-type:luminance" maskUnits="userSpaceOnUse" x="83" y="169" width="7" height="8">
<path d="M87.0111 174.099V176.32H86.0996V174.083L83.5449 169.891H84.5293L86.584 173.281L88.6465 169.891H89.5579L87.0111 174.099Z" fill="white"/>
</mask>
<g mask="url(#mask6_77_1724)">
<mask id="mask7_77_1724" style="mask-type:luminance" maskUnits="userSpaceOnUse" x="83" y="169" width="8" height="8">
<path d="M90.0007 169.333H83.334V176.666H90.0007V169.333Z" fill="white"/>
</mask>
<g mask="url(#mask7_77_1724)">
<mask id="mask8_77_1724" style="mask-type:luminance" maskUnits="userSpaceOnUse" x="83" y="169" width="7" height="8">
<path d="M83.5215 169.838H89.5762V176.369H83.5215V169.838Z" fill="white"/>
</mask>
<g mask="url(#mask8_77_1724)">
<mask id="mask9_77_1724" style="mask-type:luminance" maskUnits="userSpaceOnUse" x="83" y="169" width="7" height="8">
<path d="M87.0111 174.099V176.32H86.0996V174.083L83.5449 169.891H84.5293L86.584 173.281L88.6465 169.891H89.5579L87.0111 174.099Z" fill="white"/>
</mask>
<g mask="url(#mask9_77_1724)">
<path d="M292.8 -52.8008H-52.7998V292.799H292.8V-52.8008Z" fill="#FAFAFA"/>
</g>
</g>
</g>
</g>
</g>
<mask id="mask10_77_1724" style="mask-type:luminance" maskUnits="userSpaceOnUse" x="89" y="169" width="8" height="8">
<path d="M89.6904 169.781H96.5732V176.43H89.6904V169.781Z" fill="white"/>
</mask>
<g mask="url(#mask10_77_1724)">
<mask id="mask11_77_1724" style="mask-type:luminance" maskUnits="userSpaceOnUse" x="89" y="169" width="8" height="8">
<path d="M94.3936 175.253C94.7686 175.034 95.068 174.743 95.2868 174.368C95.5029 173.993 95.6123 173.565 95.6123 173.107C95.6123 172.646 95.5029 172.222 95.2868 171.844C95.068 171.469 94.7686 171.17 94.3936 170.961C94.016 170.75 93.5915 170.644 93.1227 170.644C92.6566 170.644 92.2217 170.75 91.8363 170.961C91.4535 171.17 91.1514 171.469 90.9352 171.844C90.7191 172.222 90.6097 172.646 90.6097 173.107C90.6097 173.565 90.7191 173.993 90.9352 174.368C91.1514 174.743 91.4535 175.045 91.8363 175.253C92.2217 175.461 92.6462 175.578 93.1227 175.578C93.5993 175.578 94.016 175.469 94.3936 175.253ZM91.3701 175.961C90.8519 175.677 90.443 175.287 90.141 174.784C89.8415 174.284 89.6982 173.724 89.6982 173.107C89.6982 172.487 89.8493 171.93 90.141 171.427C90.4352 170.927 90.8519 170.534 91.3701 170.25C91.8883 169.966 92.4639 169.815 93.1149 169.815C93.766 169.815 94.3415 169.959 94.8597 170.243C95.3779 170.526 95.7868 170.92 96.0785 171.42C96.3727 171.92 96.5212 172.479 96.5212 173.107C96.5212 173.732 96.3727 174.292 96.0785 174.792C95.7868 175.295 95.3779 175.688 94.8597 175.972C94.3415 176.256 93.7581 176.396 93.1149 176.396C92.4717 176.396 91.8779 176.256 91.3623 175.972" fill="white"/>
</mask>
<g mask="url(#mask11_77_1724)">
<mask id="mask12_77_1724" style="mask-type:luminance" maskUnits="userSpaceOnUse" x="89" y="169" width="8" height="8">
<path d="M96.6673 169.334H89.334V176.667H96.6673V169.334Z" fill="white"/>
</mask>
<g mask="url(#mask12_77_1724)">
<mask id="mask13_77_1724" style="mask-type:luminance" maskUnits="userSpaceOnUse" x="89" y="169" width="8" height="8">
<path d="M89.6904 169.781H96.5732V176.43H89.6904V169.781Z" fill="white"/>
</mask>
<g mask="url(#mask13_77_1724)">
<mask id="mask14_77_1724" style="mask-type:luminance" maskUnits="userSpaceOnUse" x="89" y="169" width="8" height="8">
<path d="M94.3936 175.253C94.7686 175.034 95.068 174.743 95.2868 174.368C95.5029 173.993 95.6123 173.565 95.6123 173.107C95.6123 172.646 95.5029 172.222 95.2868 171.844C95.068 171.469 94.7686 171.17 94.3936 170.961C94.016 170.75 93.5915 170.644 93.1227 170.644C92.6566 170.644 92.2217 170.75 91.8363 170.961C91.4535 171.17 91.1514 171.469 90.9352 171.844C90.7191 172.222 90.6097 172.646 90.6097 173.107C90.6097 173.565 90.7191 173.993 90.9352 174.368C91.1514 174.743 91.4535 175.045 91.8363 175.253C92.2217 175.461 92.6462 175.578 93.1227 175.578C93.5993 175.578 94.016 175.469 94.3936 175.253ZM91.3701 175.961C90.8519 175.677 90.443 175.287 90.141 174.784C89.8415 174.284 89.6982 173.724 89.6982 173.107C89.6982 172.487 89.8493 171.93 90.141 171.427C90.4352 170.927 90.8519 170.534 91.3701 170.25C91.8883 169.966 92.4639 169.815 93.1149 169.815C93.766 169.815 94.3415 169.959 94.8597 170.243C95.3779 170.526 95.7868 170.92 96.0785 171.42C96.3727 171.92 96.5212 172.479 96.5212 173.107C96.5212 173.732 96.3727 174.292 96.0785 174.792C95.7868 175.295 95.3779 175.688 94.8597 175.972C94.3415 176.256 93.7581 176.396 93.1149 176.396C92.4717 176.396 91.8779 176.256 91.3623 175.972" fill="white"/>
</mask>
<g mask="url(#mask14_77_1724)">
<path d="M292.8 -52.7998H-52.7998V292.8H292.8V-52.7998Z" fill="#FAFAFA"/>
</g>
</g>
</g>
</g>
</g>
<mask id="mask15_77_1724" style="mask-type:luminance" maskUnits="userSpaceOnUse" x="97" y="169" width="7" height="8">
<path d="M97.8545 169.839H103.334V176.43H97.8545V169.839Z" fill="white"/>
</mask>
<g mask="url(#mask15_77_1724)">
<mask id="mask16_77_1724" style="mask-type:luminance" maskUnits="userSpaceOnUse" x="97" y="169" width="7" height="8">
<path d="M98.5938 175.661C98.1172 175.169 97.875 174.466 97.875 173.549V169.891H98.7943V173.508C98.7943 174.885 99.3932 175.578 100.604 175.578C101.19 175.578 101.641 175.411 101.958 175.068C102.276 174.727 102.427 174.208 102.427 173.516V169.891H103.32V173.549C103.32 174.477 103.078 175.177 102.602 175.669C102.125 176.161 101.458 176.396 100.596 176.396C99.737 176.396 99.0677 176.154 98.5938 175.661Z" fill="white"/>
</mask>
<g mask="url(#mask16_77_1724)">
<mask id="mask17_77_1724" style="mask-type:luminance" maskUnits="userSpaceOnUse" x="97" y="169" width="7" height="8">
<path d="M103.333 169.333H97.333V176.666H103.333V169.333Z" fill="white"/>
</mask>
<g mask="url(#mask17_77_1724)">
<mask id="mask18_77_1724" style="mask-type:luminance" maskUnits="userSpaceOnUse" x="97" y="169" width="7" height="8">
<path d="M97.8535 169.838H103.333V176.429H97.8535V169.838Z" fill="white"/>
</mask>
<g mask="url(#mask18_77_1724)">
<mask id="mask19_77_1724" style="mask-type:luminance" maskUnits="userSpaceOnUse" x="97" y="169" width="7" height="8">
<path d="M98.5938 175.661C98.1172 175.169 97.875 174.466 97.875 173.549V169.891H98.7943V173.508C98.7943 174.885 99.3932 175.578 100.604 175.578C101.19 175.578 101.641 175.411 101.958 175.068C102.276 174.727 102.427 174.208 102.427 173.516V169.891H103.32V173.549C103.32 174.477 103.078 175.177 102.602 175.669C102.125 176.161 101.458 176.396 100.596 176.396C99.737 176.396 99.0677 176.154 98.5938 175.661Z" fill="white"/>
</mask>
<g mask="url(#mask19_77_1724)">
<path d="M292.799 -52.8008H-52.8008V292.799H292.799V-52.8008Z" fill="#FAFAFA"/>
</g>
</g>
</g>
</g>
</g>
<mask id="mask20_77_1724" style="mask-type:luminance" maskUnits="userSpaceOnUse" x="105" y="169" width="6" height="8">
<path d="M105.203 169.839H110.51V176.37H105.203V169.839Z" fill="white"/>
</mask>
<g mask="url(#mask20_77_1724)">
<mask id="mask21_77_1724" style="mask-type:luminance" maskUnits="userSpaceOnUse" x="105" y="169" width="6" height="8">
<path d="M109.006 173.206C109.315 172.956 109.466 172.596 109.466 172.13C109.466 171.661 109.315 171.302 109.006 171.06C108.698 170.818 108.256 170.685 107.67 170.685H106.118V173.581H107.68C108.263 173.581 108.706 173.456 109.016 173.206M109.5 176.32L108.112 174.341C107.938 174.352 107.805 174.359 107.711 174.359H106.125V176.312H105.206V169.891H107.711C108.547 169.891 109.198 170.091 109.675 170.484C110.151 170.878 110.394 171.427 110.394 172.13C110.394 172.622 110.269 173.047 110.026 173.398C109.784 173.75 109.433 174 108.982 174.159L110.511 176.32H109.5Z" fill="white"/>
</mask>
<g mask="url(#mask21_77_1724)">
<mask id="mask22_77_1724" style="mask-type:luminance" maskUnits="userSpaceOnUse" x="104" y="169" width="7" height="8">
<path d="M110.667 169.333H104.667V176.666H110.667V169.333Z" fill="white"/>
</mask>
<g mask="url(#mask22_77_1724)">
<mask id="mask23_77_1724" style="mask-type:luminance" maskUnits="userSpaceOnUse" x="105" y="169" width="6" height="8">
<path d="M105.203 169.838H110.51V176.369H105.203V169.838Z" fill="white"/>
</mask>
<g mask="url(#mask23_77_1724)">
<mask id="mask24_77_1724" style="mask-type:luminance" maskUnits="userSpaceOnUse" x="105" y="169" width="6" height="8">
<path d="M109.006 173.206C109.315 172.956 109.466 172.596 109.466 172.13C109.466 171.661 109.315 171.302 109.006 171.06C108.698 170.818 108.256 170.685 107.67 170.685H106.118V173.581H107.68C108.263 173.581 108.706 173.456 109.016 173.206M109.5 176.32L108.112 174.341C107.938 174.352 107.805 174.359 107.711 174.359H106.125V176.312H105.206V169.891H107.711C108.547 169.891 109.198 170.091 109.675 170.484C110.151 170.878 110.394 171.427 110.394 172.13C110.394 172.622 110.269 173.047 110.026 173.398C109.784 173.75 109.433 174 108.982 174.159L110.511 176.32H109.5Z" fill="white"/>
</mask>
<g mask="url(#mask24_77_1724)">
<path d="M292.8 -52.8008H-52.7998V292.799H292.8V-52.8008Z" fill="#FAFAFA"/>
</g>
</g>
</g>
</g>
</g>
<mask id="mask25_77_1724" style="mask-type:luminance" maskUnits="userSpaceOnUse" x="114" y="169" width="6" height="8">
<path d="M114.3 169.839H119.024V176.37H114.3V169.839Z" fill="white"/>
</mask>
<g mask="url(#mask25_77_1724)">
<mask id="mask26_77_1724" style="mask-type:luminance" maskUnits="userSpaceOnUse" x="114" y="169" width="6" height="8">
<path d="M119.01 175.518V176.32H114.344V169.891H118.878V170.693H115.26V172.664H118.484V173.448H115.26V175.529L119.01 175.518Z" fill="white"/>
</mask>
<g mask="url(#mask26_77_1724)">
<mask id="mask27_77_1724" style="mask-type:luminance" maskUnits="userSpaceOnUse" x="114" y="169" width="6" height="8">
<path d="M119.333 169.333H114V176.666H119.333V169.333Z" fill="white"/>
</mask>
<g mask="url(#mask27_77_1724)">
<mask id="mask28_77_1724" style="mask-type:luminance" maskUnits="userSpaceOnUse" x="114" y="169" width="6" height="8">
<path d="M114.3 169.838H119.024V176.369H114.3V169.838Z" fill="white"/>
</mask>
<g mask="url(#mask28_77_1724)">
<mask id="mask29_77_1724" style="mask-type:luminance" maskUnits="userSpaceOnUse" x="114" y="169" width="6" height="8">
<path d="M119.01 175.518V176.32H114.344V169.891H118.878V170.693H115.26V172.664H118.484V173.448H115.26V175.529L119.01 175.518Z" fill="white"/>
</mask>
<g mask="url(#mask29_77_1724)">
<path d="M292.8 -52.8008H-52.7998V292.799H292.8V-52.8008Z" fill="#FAFAFA"/>
</g>
</g>
</g>
</g>
</g>
<mask id="mask30_77_1724" style="mask-type:luminance" maskUnits="userSpaceOnUse" x="119" y="169" width="6" height="8">
<path d="M119.898 169.781H124.857V176.43H119.898V169.781Z" fill="white"/>
</mask>
<g mask="url(#mask30_77_1724)">
<mask id="mask31_77_1724" style="mask-type:luminance" maskUnits="userSpaceOnUse" x="119" y="169" width="6" height="8">
<path d="M120.974 176.172C120.523 176.021 120.172 175.828 119.911 175.586L120.255 174.868C120.497 175.086 120.815 175.269 121.198 175.404C121.583 175.537 121.976 175.612 122.375 175.612C122.911 175.612 123.312 175.519 123.57 175.336C123.828 175.151 123.963 174.92 123.963 174.618C123.963 174.401 123.888 174.216 123.744 174.084C123.604 173.951 123.419 173.841 123.211 173.766C123.002 173.69 122.703 173.607 122.317 173.516C121.833 173.399 121.44 173.282 121.148 173.164C120.856 173.047 120.596 172.873 120.388 172.631C120.179 172.388 120.07 172.063 120.07 171.654C120.07 171.31 120.164 171.003 120.338 170.727C120.513 170.451 120.789 170.235 121.156 170.065C121.523 169.899 121.984 169.815 122.526 169.815C122.911 169.815 123.278 169.865 123.646 169.966C124.013 170.065 124.33 170.209 124.588 170.394L124.289 171.128C124.021 170.951 123.729 170.826 123.419 170.735C123.112 170.644 122.81 170.602 122.518 170.602C122 170.602 121.606 170.693 121.349 170.886C121.091 171.076 120.955 171.318 120.955 171.62C120.955 171.836 121.031 172.021 121.174 172.154C121.315 172.287 121.5 172.396 121.716 172.479C121.935 172.563 122.226 172.638 122.601 172.722C123.086 172.839 123.479 172.956 123.771 173.073C124.062 173.19 124.312 173.365 124.531 173.607C124.747 173.849 124.849 174.167 124.849 174.568C124.849 174.901 124.755 175.211 124.573 175.495C124.388 175.779 124.112 175.995 123.737 176.154C123.362 176.313 122.903 176.396 122.359 176.396C121.875 176.396 121.406 176.321 120.955 176.172" fill="white"/>
</mask>
<g mask="url(#mask31_77_1724)">
<mask id="mask32_77_1724" style="mask-type:luminance" maskUnits="userSpaceOnUse" x="119" y="169" width="7" height="8">
<path d="M125.333 169.334H119.333V176.667H125.333V169.334Z" fill="white"/>
</mask>
<g mask="url(#mask32_77_1724)">
<mask id="mask33_77_1724" style="mask-type:luminance" maskUnits="userSpaceOnUse" x="119" y="169" width="6" height="8">
<path d="M119.898 169.781H124.857V176.43H119.898V169.781Z" fill="white"/>
</mask>
<g mask="url(#mask33_77_1724)">
<mask id="mask34_77_1724" style="mask-type:luminance" maskUnits="userSpaceOnUse" x="119" y="169" width="6" height="8">
<path d="M120.974 176.172C120.523 176.021 120.172 175.828 119.911 175.586L120.255 174.868C120.497 175.086 120.815 175.269 121.198 175.404C121.583 175.537 121.976 175.612 122.375 175.612C122.911 175.612 123.312 175.519 123.57 175.336C123.828 175.151 123.963 174.92 123.963 174.618C123.963 174.401 123.888 174.216 123.744 174.084C123.604 173.951 123.419 173.841 123.211 173.766C123.002 173.69 122.703 173.607 122.317 173.516C121.833 173.399 121.44 173.282 121.148 173.164C120.856 173.047 120.596 172.873 120.388 172.631C120.179 172.388 120.07 172.063 120.07 171.654C120.07 171.31 120.164 171.003 120.338 170.727C120.513 170.451 120.789 170.235 121.156 170.065C121.523 169.899 121.984 169.815 122.526 169.815C122.911 169.815 123.278 169.865 123.646 169.966C124.013 170.065 124.33 170.209 124.588 170.394L124.289 171.128C124.021 170.951 123.729 170.826 123.419 170.735C123.112 170.644 122.81 170.602 122.518 170.602C122 170.602 121.606 170.693 121.349 170.886C121.091 171.076 120.955 171.318 120.955 171.62C120.955 171.836 121.031 172.021 121.174 172.154C121.315 172.287 121.5 172.396 121.716 172.479C121.935 172.563 122.226 172.638 122.601 172.722C123.086 172.839 123.479 172.956 123.771 173.073C124.062 173.19 124.312 173.365 124.531 173.607C124.747 173.849 124.849 174.167 124.849 174.568C124.849 174.901 124.755 175.211 124.573 175.495C124.388 175.779 124.112 175.995 123.737 176.154C123.362 176.313 122.903 176.396 122.359 176.396C121.875 176.396 121.406 176.321 120.955 176.172" fill="white"/>
</mask>
<g mask="url(#mask34_77_1724)">
<path d="M292.8 -52.7998H-52.7998V292.8H292.8V-52.7998Z" fill="#FAFAFA"/>
</g>
</g>
</g>
</g>
</g>
<mask id="mask35_77_1724" style="mask-type:luminance" maskUnits="userSpaceOnUse" x="125" y="169" width="7" height="8">
<path d="M125.672 169.781H131.562V176.43H125.672V169.781Z" fill="white"/>
</mask>
<g mask="url(#mask35_77_1724)">
<mask id="mask36_77_1724" style="mask-type:luminance" maskUnits="userSpaceOnUse" x="125" y="169" width="7" height="8">
<path d="M127.336 175.961C126.818 175.677 126.42 175.287 126.118 174.784C125.818 174.284 125.675 173.724 125.675 173.099C125.675 172.472 125.826 171.912 126.118 171.412C126.409 170.909 126.818 170.519 127.336 170.235C127.854 169.951 128.448 169.815 129.091 169.815C129.591 169.815 130.05 169.899 130.469 170.065C130.886 170.235 131.237 170.485 131.537 170.818L130.946 171.394C130.461 170.886 129.86 170.636 129.133 170.636C128.657 170.636 128.222 170.743 127.839 170.951C127.453 171.162 127.154 171.461 126.935 171.836C126.719 172.214 126.61 172.638 126.61 173.099C126.61 173.558 126.719 173.982 126.935 174.36C127.154 174.735 127.453 175.034 127.839 175.245C128.222 175.453 128.657 175.571 129.133 175.571C129.852 175.571 130.451 175.31 130.946 174.792L131.537 175.37C131.245 175.703 130.886 175.953 130.469 176.12C130.05 176.287 129.591 176.381 129.084 176.381C128.44 176.381 127.862 176.237 127.344 175.953" fill="white"/>
</mask>
<g mask="url(#mask36_77_1724)">
<mask id="mask37_77_1724" style="mask-type:luminance" maskUnits="userSpaceOnUse" x="125" y="169" width="8" height="8">
<path d="M132.001 169.334H125.334V176.667H132.001V169.334Z" fill="white"/>
</mask>
<g mask="url(#mask37_77_1724)">
<mask id="mask38_77_1724" style="mask-type:luminance" maskUnits="userSpaceOnUse" x="125" y="169" width="7" height="8">
<path d="M125.672 169.781H131.562V176.43H125.672V169.781Z" fill="white"/>
</mask>
<g mask="url(#mask38_77_1724)">
<mask id="mask39_77_1724" style="mask-type:luminance" maskUnits="userSpaceOnUse" x="125" y="169" width="7" height="8">
<path d="M127.336 175.961C126.818 175.677 126.42 175.287 126.118 174.784C125.818 174.284 125.675 173.724 125.675 173.099C125.675 172.472 125.826 171.912 126.118 171.412C126.409 170.909 126.818 170.519 127.336 170.235C127.854 169.951 128.448 169.815 129.091 169.815C129.591 169.815 130.05 169.899 130.469 170.065C130.886 170.235 131.237 170.485 131.537 170.818L130.946 171.394C130.461 170.886 129.86 170.636 129.133 170.636C128.657 170.636 128.222 170.743 127.839 170.951C127.453 171.162 127.154 171.461 126.935 171.836C126.719 172.214 126.61 172.638 126.61 173.099C126.61 173.558 126.719 173.982 126.935 174.36C127.154 174.735 127.453 175.034 127.839 175.245C128.222 175.453 128.657 175.571 129.133 175.571C129.852 175.571 130.451 175.31 130.946 174.792L131.537 175.37C131.245 175.703 130.886 175.953 130.469 176.12C130.05 176.287 129.591 176.381 129.084 176.381C128.44 176.381 127.862 176.237 127.344 175.953" fill="white"/>
</mask>
<g mask="url(#mask39_77_1724)">
<path d="M292.8 -52.7998H-52.7998V292.8H292.8V-52.7998Z" fill="#FAFAFA"/>
</g>
</g>
</g>
</g>
</g>
<mask id="mask40_77_1724" style="mask-type:luminance" maskUnits="userSpaceOnUse" x="131" y="169" width="8" height="8">
<path d="M131.68 169.839H138.503V176.37H131.68V169.839Z" fill="white"/>
</mask>
<g mask="url(#mask40_77_1724)">
<mask id="mask41_77_1724" style="mask-type:luminance" maskUnits="userSpaceOnUse" x="131" y="169" width="8" height="8">
<path d="M136.464 173.974L135.078 170.826L133.693 173.974H136.464ZM136.782 174.708H133.368L132.657 176.312H131.714L134.628 169.883H135.537L138.461 176.312H137.493L136.782 174.708Z" fill="white"/>
</mask>
<g mask="url(#mask41_77_1724)">
<mask id="mask42_77_1724" style="mask-type:luminance" maskUnits="userSpaceOnUse" x="131" y="169" width="8" height="8">
<path d="M138.667 169.333H131.334V176.666H138.667V169.333Z" fill="white"/>
</mask>
<g mask="url(#mask42_77_1724)">
<mask id="mask43_77_1724" style="mask-type:luminance" maskUnits="userSpaceOnUse" x="131" y="169" width="8" height="8">
<path d="M131.68 169.838H138.503V176.32H131.68V169.838Z" fill="white"/>
</mask>
<g mask="url(#mask43_77_1724)">
<mask id="mask44_77_1724" style="mask-type:luminance" maskUnits="userSpaceOnUse" x="131" y="169" width="8" height="8">
<path d="M136.464 173.974L135.078 170.826L133.693 173.974H136.464ZM136.782 174.708H133.368L132.657 176.312H131.714L134.628 169.883H135.537L138.461 176.312H137.493L136.782 174.708Z" fill="white"/>
</mask>
<g mask="url(#mask44_77_1724)">
<path d="M292.8 -52.8008H-52.7998V292.799H292.8V-52.8008Z" fill="#FAFAFA"/>
</g>
</g>
</g>
</g>
</g>
<mask id="mask45_77_1724" style="mask-type:luminance" maskUnits="userSpaceOnUse" x="139" y="169" width="6" height="8">
<path d="M139.378 169.839H144.625V176.37H139.378V169.839Z" fill="white"/>
</mask>
<g mask="url(#mask45_77_1724)">
<mask id="mask46_77_1724" style="mask-type:luminance" maskUnits="userSpaceOnUse" x="139" y="169" width="6" height="8">
<path d="M143.23 173.198C143.537 172.948 143.688 172.589 143.688 172.13C143.688 171.669 143.537 171.302 143.23 171.06C142.92 170.818 142.477 170.685 141.894 170.685H140.331V173.573H141.894C142.477 173.573 142.92 173.448 143.23 173.198ZM143.889 170.484C144.365 170.885 144.607 171.427 144.607 172.13C144.607 172.831 144.365 173.372 143.889 173.773C143.412 174.174 142.753 174.367 141.925 174.367H140.331V176.312H139.412V169.891H141.917C142.753 169.891 143.404 170.091 143.881 170.484" fill="white"/>
</mask>
<g mask="url(#mask46_77_1724)">
<mask id="mask47_77_1724" style="mask-type:luminance" maskUnits="userSpaceOnUse" x="139" y="169" width="6" height="8">
<path d="M144.667 169.333H139.334V176.666H144.667V169.333Z" fill="white"/>
</mask>
<g mask="url(#mask47_77_1724)">
<mask id="mask48_77_1724" style="mask-type:luminance" maskUnits="userSpaceOnUse" x="139" y="169" width="6" height="8">
<path d="M139.378 169.838H144.625V176.32H139.378V169.838Z" fill="white"/>
</mask>
<g mask="url(#mask48_77_1724)">
<mask id="mask49_77_1724" style="mask-type:luminance" maskUnits="userSpaceOnUse" x="139" y="169" width="6" height="8">
<path d="M143.23 173.198C143.537 172.948 143.688 172.589 143.688 172.13C143.688 171.669 143.537 171.302 143.23 171.06C142.92 170.818 142.477 170.685 141.894 170.685H140.331V173.573H141.894C142.477 173.573 142.92 173.448 143.23 173.198ZM143.889 170.484C144.365 170.885 144.607 171.427 144.607 172.13C144.607 172.831 144.365 173.372 143.889 173.773C143.412 174.174 142.753 174.367 141.925 174.367H140.331V176.312H139.412V169.891H141.917C142.753 169.891 143.404 170.091 143.881 170.484" fill="white"/>
</mask>
<g mask="url(#mask49_77_1724)">
<path d="M292.8 -52.8008H-52.7998V292.799H292.8V-52.8008Z" fill="#FAFAFA"/>
</g>
</g>
</g>
</g>
</g>
<mask id="mask50_77_1724" style="mask-type:luminance" maskUnits="userSpaceOnUse" x="145" y="169" width="6" height="8">
<path d="M145.909 169.839H150.631V176.37H145.909V169.839Z" fill="white"/>
</mask>
<g mask="url(#mask50_77_1724)">
<mask id="mask51_77_1724" style="mask-type:luminance" maskUnits="userSpaceOnUse" x="145" y="169" width="6" height="8">
<path d="M150.62 175.518V176.32H145.951V169.891H150.485V170.693H146.87V172.664H150.094V173.448H146.87V175.529L150.62 175.518Z" fill="white"/>
</mask>
<g mask="url(#mask51_77_1724)">
<mask id="mask52_77_1724" style="mask-type:luminance" maskUnits="userSpaceOnUse" x="145" y="169" width="6" height="8">
<path d="M150.667 169.333H145.334V176.666H150.667V169.333Z" fill="white"/>
</mask>
<g mask="url(#mask52_77_1724)">
<mask id="mask53_77_1724" style="mask-type:luminance" maskUnits="userSpaceOnUse" x="145" y="169" width="6" height="8">
<path d="M145.92 169.838H150.631V176.369H145.92V169.838Z" fill="white"/>
</mask>
<g mask="url(#mask53_77_1724)">
<mask id="mask54_77_1724" style="mask-type:luminance" maskUnits="userSpaceOnUse" x="145" y="169" width="6" height="8">
<path d="M150.62 175.518V176.32H145.951V169.891H150.485V170.693H146.87V172.664H150.094V173.448H146.87V175.529L150.62 175.518Z" fill="white"/>
</mask>
<g mask="url(#mask54_77_1724)">
<path d="M292.8 -52.8008H-52.7998V292.799H292.8V-52.8008Z" fill="#FAFAFA"/>
</g>
</g>
</g>
</g>
</g>
<mask id="mask55_77_1724" style="mask-type:luminance" maskUnits="userSpaceOnUse" x="14" y="129" width="37" height="27">
<path d="M14.2422 129.021H50.6615V155.718H14.2422V129.021Z" fill="white"/>
</mask>
<g mask="url(#mask55_77_1724)">
<mask id="mask56_77_1724" style="mask-type:luminance" maskUnits="userSpaceOnUse" x="14" y="129" width="37" height="27">
<path d="M44.3564 146.49C43.8304 144.583 42.4424 143.19 40.5648 142.195C34.7601 143.742 26.0674 143.891 19.2367 142.437V153.378C21.7497 153.896 26.5596 154.195 29.8486 154.187C39.9554 154.154 45.5908 150.932 44.3564 146.49ZM19.2367 140.969C20.4632 141.427 27.0283 142.187 32.5986 141.737C34.3773 141.594 35.9554 141.32 37.2992 140.943C31.4606 139.372 23.5622 139.94 19.2262 140.768L19.2367 140.969ZM19.2367 139.258C25.1143 138.255 30.9189 138.331 36.0726 138.805C37.4502 138.93 38.9346 139.213 40.4216 139.633C42.1247 138.562 42.8773 137.169 42.4606 135.599C42.0257 133.971 40.2966 132.635 38.4424 131.823C32.8721 129.385 22.9007 130.88 19.2367 131.781V139.258ZM48.8564 151.247C44.4632 155.792 25.2575 156.927 14.3096 154.154V131.773C20.0622 129.711 25.7236 129.068 30.9945 129.034C43.0283 128.969 51.2939 134.346 45.8825 139.641C45.4085 140.109 44.7809 140.534 44.0309 140.909C49.208 143.198 52.9163 147.047 48.8486 151.247" fill="white"/>
</mask>
<g mask="url(#mask56_77_1724)">
<mask id="mask57_77_1724" style="mask-type:luminance" maskUnits="userSpaceOnUse" x="14" y="128" width="37" height="28">
<path d="M50.6667 128.666H14V155.999H50.6667V128.666Z" fill="white"/>
</mask>
<g mask="url(#mask57_77_1724)">
<mask id="mask58_77_1724" style="mask-type:luminance" maskUnits="userSpaceOnUse" x="14" y="129" width="37" height="27">
<path d="M14.2422 129.021H50.6615V155.718H14.2422V129.021Z" fill="white"/>
</mask>
<g mask="url(#mask58_77_1724)">
<mask id="mask59_77_1724" style="mask-type:luminance" maskUnits="userSpaceOnUse" x="14" y="129" width="37" height="27">
<path d="M44.3564 146.49C43.8304 144.583 42.4424 143.19 40.5648 142.195C34.7601 143.742 26.0674 143.891 19.2367 142.437V153.378C21.7497 153.896 26.5596 154.195 29.8486 154.187C39.9554 154.154 45.5908 150.932 44.3564 146.49ZM19.2367 140.969C20.4632 141.427 27.0283 142.187 32.5986 141.737C34.3773 141.594 35.9554 141.32 37.2992 140.943C31.4606 139.372 23.5622 139.94 19.2262 140.768L19.2367 140.969ZM19.2367 139.258C25.1143 138.255 30.9189 138.331 36.0726 138.805C37.4502 138.93 38.9346 139.213 40.4216 139.633C42.1247 138.562 42.8773 137.169 42.4606 135.599C42.0257 133.971 40.2966 132.635 38.4424 131.823C32.8721 129.385 22.9007 130.88 19.2367 131.781V139.258ZM48.8564 151.247C44.4632 155.792 25.2575 156.927 14.3096 154.154V131.773C20.0622 129.711 25.7236 129.068 30.9945 129.034C43.0283 128.969 51.2939 134.346 45.8825 139.641C45.4085 140.109 44.7809 140.534 44.0309 140.909C49.208 143.198 52.9163 147.047 48.8486 151.247" fill="white"/>
</mask>
<g mask="url(#mask59_77_1724)">
<path d="M292.8 -52.7998H-52.7998V292.8H292.8V-52.7998Z" fill="#FAFAFA"/>
</g>
</g>
</g>
</g>
</g>
<mask id="mask60_77_1724" style="mask-type:luminance" maskUnits="userSpaceOnUse" x="54" y="128" width="37" height="28">
<path d="M54.0859 128.883H90.7786V155.719H54.0859V128.883Z" fill="white"/>
</mask>
<g mask="url(#mask60_77_1724)">
<mask id="mask61_77_1724" style="mask-type:luminance" maskUnits="userSpaceOnUse" x="54" y="128" width="37" height="28">
<path d="M90.7214 152.711V155.591H54.1094V130.964L59.0365 128.969V152.711H90.7214Z" fill="white"/>
</mask>
<g mask="url(#mask61_77_1724)">
<mask id="mask62_77_1724" style="mask-type:luminance" maskUnits="userSpaceOnUse" x="54" y="128" width="38" height="28">
<path d="M91.3333 128.667H54V156H91.3333V128.667Z" fill="white"/>
</mask>
<g mask="url(#mask62_77_1724)">
<mask id="mask63_77_1724" style="mask-type:luminance" maskUnits="userSpaceOnUse" x="54" y="128" width="37" height="28">
<path d="M54.0859 128.961H90.7786V155.68H54.0859V128.961Z" fill="white"/>
</mask>
<g mask="url(#mask63_77_1724)">
<mask id="mask64_77_1724" style="mask-type:luminance" maskUnits="userSpaceOnUse" x="54" y="128" width="37" height="28">
<path d="M90.7214 152.711V155.591H54.1094V130.964L59.0365 128.969V152.711H90.7214Z" fill="white"/>
</mask>
<g mask="url(#mask64_77_1724)">
<path d="M292.8 -52.7998H-52.7998V292.8H292.8V-52.7998Z" fill="#FAFAFA"/>
</g>
</g>
</g>
</g>
</g>
<mask id="mask65_77_1724" style="mask-type:luminance" maskUnits="userSpaceOnUse" x="94" y="128" width="6" height="28">
<path d="M94.8877 128.883H99.9528V155.719H94.8877V128.883Z" fill="white"/>
</mask>
<g mask="url(#mask65_77_1724)">
<mask id="mask66_77_1724" style="mask-type:luminance" maskUnits="userSpaceOnUse" x="94" y="128" width="6" height="28">
<path d="M99.8646 128.969V155.591H94.9375V130.964L99.8646 128.969Z" fill="white"/>
</mask>
<g mask="url(#mask66_77_1724)">
<mask id="mask67_77_1724" style="mask-type:luminance" maskUnits="userSpaceOnUse" x="94" y="128" width="7" height="28">
<path d="M100 128.667H94.667V156H100V128.667Z" fill="white"/>
</mask>
<g mask="url(#mask67_77_1724)">
<mask id="mask68_77_1724" style="mask-type:luminance" maskUnits="userSpaceOnUse" x="94" y="128" width="6" height="28">
<path d="M94.8887 128.961H99.9538V155.68H94.8887V128.961Z" fill="white"/>
</mask>
<g mask="url(#mask68_77_1724)">
<mask id="mask69_77_1724" style="mask-type:luminance" maskUnits="userSpaceOnUse" x="94" y="128" width="6" height="28">
<path d="M99.8646 128.969V155.591H94.9375V130.964L99.8646 128.969Z" fill="white"/>
</mask>
<g mask="url(#mask69_77_1724)">
<path d="M292.8 -52.7998H-52.7998V292.8H292.8V-52.7998Z" fill="#FAFAFA"/>
</g>
</g>
</g>
</g>
</g>
<mask id="mask70_77_1724" style="mask-type:luminance" maskUnits="userSpaceOnUse" x="105" y="128" width="38" height="28">
<path d="M105.567 128.883H142.26V155.719H105.567V128.883Z" fill="white"/>
</mask>
<g mask="url(#mask70_77_1724)">
<mask id="mask71_77_1724" style="mask-type:luminance" maskUnits="userSpaceOnUse" x="105" y="128" width="38" height="28">
<path d="M130.714 141.46C125.935 139.624 119.021 139.674 114.018 140.234C115.682 140.96 117.904 141.46 120.568 141.676C124.083 141.96 127.99 141.762 130.714 141.46ZM140.474 151.189C138.044 153.703 131.99 155.773 122.872 155.598C116.216 155.515 109.477 153.929 105.594 152.067L107.198 149.778C111.365 152.643 117.201 154.236 122.62 154.104V154.111C132.859 153.895 137.177 150.713 135.982 146.421C135.523 144.783 134.438 143.523 132.951 142.562C123.448 144.333 110.956 143.163 107.289 139.572C101.878 134.278 110.143 128.9 122.188 128.968C133.938 128.801 137.419 130.546 140.242 131.739L138.638 134.229C134.979 131.473 129.904 130.455 125.568 130.312C122.003 130.153 117.443 130.562 114.729 131.749C112.875 132.559 111.146 133.895 110.714 135.523C110.362 136.835 110.828 138.02 111.982 138.997C117.477 138.187 122.872 138.278 127.698 138.729C135.305 139.432 146.539 144.908 140.474 151.174" fill="white"/>
</mask>
<g mask="url(#mask71_77_1724)">
<mask id="mask72_77_1724" style="mask-type:luminance" maskUnits="userSpaceOnUse" x="105" y="128" width="38" height="28">
<path d="M142.666 128.666H105.333V155.999H142.666V128.666Z" fill="white"/>
</mask>
<g mask="url(#mask72_77_1724)">
<mask id="mask73_77_1724" style="mask-type:luminance" maskUnits="userSpaceOnUse" x="105" y="128" width="38" height="28">
<path d="M105.567 128.883H142.26V155.719H105.567V128.883Z" fill="white"/>
</mask>
<g mask="url(#mask73_77_1724)">
<mask id="mask74_77_1724" style="mask-type:luminance" maskUnits="userSpaceOnUse" x="105" y="128" width="38" height="28">
<path d="M130.714 141.46C125.935 139.624 119.021 139.674 114.018 140.234C115.682 140.96 117.904 141.46 120.568 141.676C124.083 141.96 127.99 141.762 130.714 141.46ZM140.474 151.189C138.044 153.703 131.99 155.773 122.872 155.598C116.216 155.515 109.477 153.929 105.594 152.067L107.198 149.778C111.365 152.643 117.201 154.236 122.62 154.104V154.111C132.859 153.895 137.177 150.713 135.982 146.421C135.523 144.783 134.438 143.523 132.951 142.562C123.448 144.333 110.956 143.163 107.289 139.572C101.878 134.278 110.143 128.9 122.188 128.968C133.938 128.801 137.419 130.546 140.242 131.739L138.638 134.229C134.979 131.473 129.904 130.455 125.568 130.312C122.003 130.153 117.443 130.562 114.729 131.749C112.875 132.559 111.146 133.895 110.714 135.523C110.362 136.835 110.828 138.02 111.982 138.997C117.477 138.187 122.872 138.278 127.698 138.729C135.305 139.432 146.539 144.908 140.474 151.174" fill="white"/>
</mask>
<g mask="url(#mask74_77_1724)">
<path d="M292.8 -52.7998H-52.7998V292.8H292.8V-52.7998Z" fill="#FAFAFA"/>
</g>
</g>
</g>
</g>
</g>
<mask id="mask75_77_1724" style="mask-type:luminance" maskUnits="userSpaceOnUse" x="147" y="128" width="38" height="28">
<path d="M147.464 128.883H184.295V155.719H147.464V128.883Z" fill="white"/>
</mask>
<g mask="url(#mask75_77_1724)">
<mask id="mask76_77_1724" style="mask-type:luminance" maskUnits="userSpaceOnUse" x="147" y="128" width="38" height="28">
<path d="M184.201 155.591L180.61 155.599C178.407 144.909 175.089 142.74 173.011 140.326H152.519V155.591H147.592V130.964L152.519 128.969V138.839H173.011C175.566 136.951 178.949 132.742 180.277 128.969L184.201 128.961C181.889 134.562 177.545 137.737 174.165 139.682C177.42 142.229 183.081 147.891 184.201 155.591Z" fill="white"/>
</mask>
<g mask="url(#mask76_77_1724)">
<mask id="mask77_77_1724" style="mask-type:luminance" maskUnits="userSpaceOnUse" x="147" y="128" width="38" height="28">
<path d="M184.667 128.667H147.334V156H184.667V128.667Z" fill="white"/>
</mask>
<g mask="url(#mask77_77_1724)">
<mask id="mask78_77_1724" style="mask-type:luminance" maskUnits="userSpaceOnUse" x="147" y="128" width="38" height="28">
<path d="M147.521 128.883H184.295V155.68H147.521V128.883Z" fill="white"/>
</mask>
<g mask="url(#mask78_77_1724)">
<mask id="mask79_77_1724" style="mask-type:luminance" maskUnits="userSpaceOnUse" x="147" y="128" width="38" height="28">
<path d="M184.201 155.591L180.61 155.599C178.407 144.909 175.089 142.74 173.011 140.326H152.519V155.591H147.592V130.964L152.519 128.969V138.839H173.011C175.566 136.951 178.949 132.742 180.277 128.969L184.201 128.961C181.889 134.562 177.545 137.737 174.165 139.682C177.42 142.229 183.081 147.891 184.201 155.591Z" fill="white"/>
</mask>
<g mask="url(#mask79_77_1724)">
<path d="M292.8 -52.7998H-52.7998V292.8H292.8V-52.7998Z" fill="#FAFAFA"/>
</g>
</g>
</g>
</g>
</g>
<mask id="mask80_77_1724" style="mask-type:luminance" maskUnits="userSpaceOnUse" x="189" y="128" width="37" height="28">
<path d="M189.362 128.883H225.782V155.719H189.362V128.883Z" fill="white"/>
</mask>
<g mask="url(#mask80_77_1724)">
<mask id="mask81_77_1724" style="mask-type:luminance" maskUnits="userSpaceOnUse" x="189" y="128" width="37" height="28">
<path d="M211.785 148.886C206.657 146.99 200.803 146.94 196.303 147.591C196.946 147.891 197.355 148.058 197.337 148.05C201.68 149.302 206.032 149.662 209.779 149.219C210.482 149.136 211.149 149.026 211.785 148.886ZM214.982 147.849C219.016 146.029 220.87 142.774 220.594 139.107C219.735 127.982 200.152 129.93 194.331 131.774V146.472C197.639 145.696 202.048 145.552 205.563 145.763C209.204 145.972 212.352 146.74 214.99 147.849M224.094 155.599H220.553C218.876 153.026 216.613 151.175 214.063 149.87C208.019 151.115 200.527 150.865 194.331 148.961V155.591H189.404V131.774C197.287 128.667 205.389 128.568 212.318 129.378C219.928 130.271 229.889 137.011 223.826 144.943C222.49 146.69 220.193 148.05 217.347 149.003C220.587 150.839 222.842 153.219 224.094 155.599Z" fill="white"/>
</mask>
<g mask="url(#mask81_77_1724)">
<mask id="mask82_77_1724" style="mask-type:luminance" maskUnits="userSpaceOnUse" x="189" y="128" width="38" height="28">
<path d="M226.001 128.667H189.334V156H226.001V128.667Z" fill="white"/>
</mask>
<g mask="url(#mask82_77_1724)">
<mask id="mask83_77_1724" style="mask-type:luminance" maskUnits="userSpaceOnUse" x="189" y="128" width="37" height="28">
<path d="M189.362 128.883H225.782V155.68H189.362V128.883Z" fill="white"/>
</mask>
<g mask="url(#mask83_77_1724)">
<mask id="mask84_77_1724" style="mask-type:luminance" maskUnits="userSpaceOnUse" x="189" y="128" width="37" height="28">
<path d="M211.785 148.886C206.657 146.99 200.803 146.94 196.303 147.591C196.946 147.891 197.355 148.058 197.337 148.05C201.68 149.302 206.032 149.662 209.779 149.219C210.482 149.136 211.149 149.026 211.785 148.886ZM214.982 147.849C219.016 146.029 220.87 142.774 220.594 139.107C219.735 127.982 200.152 129.93 194.331 131.774V146.472C197.639 145.696 202.048 145.552 205.563 145.763C209.204 145.972 212.352 146.74 214.99 147.849M224.094 155.599H220.553C218.876 153.026 216.613 151.175 214.063 149.87C208.019 151.115 200.527 150.865 194.331 148.961V155.591H189.404V131.774C197.287 128.667 205.389 128.568 212.318 129.378C219.928 130.271 229.889 137.011 223.826 144.943C222.49 146.69 220.193 148.05 217.347 149.003C220.587 150.839 222.842 153.219 224.094 155.599Z" fill="white"/>
</mask>
<g mask="url(#mask84_77_1724)">
<path d="M292.8 -52.7998H-52.7998V292.8H292.8V-52.7998Z" fill="#FAFAFA"/>
</g>
</g>
</g>
</g>
</g>
</svg>
