<svg width="35" height="35" viewBox="0 0 35 35" fill="none" xmlns="http://www.w3.org/2000/svg">
<path d="M32.5 0.0976505C33.1125 -0.121099 33.7875 0.0351505 34.25 0.491401C34.7125 0.947651 34.8625 1.6289 34.6437 2.2414L23.5188 33.2977C23.2063 34.1664 22.3875 34.7414 21.4688 34.7414C20.5812 34.7414 19.7812 34.2039 19.45 33.3852L15.4375 23.5101C15.1562 22.8226 15.2813 22.0352 15.7625 21.4727L21.6688 14.4476C21.9875 14.0664 21.9625 13.5102 21.6125 13.1602C21.2625 12.8102 20.7 12.7852 20.325 13.1039L13.3 18.9977C12.7313 19.4727 11.95 19.5976 11.2625 19.3226L1.35625 15.2914C0.5375 14.9601 0 14.1602 0 13.2727C0 12.3539 0.575 11.5352 1.44375 11.2227L32.5 0.0976505Z" fill="#333333"/>
</svg>
