<svg width="32" height="32" viewBox="0 0 32 32" fill="none" xmlns="http://www.w3.org/2000/svg">
<path d="M8 6V5C8 2.2375 13.375 0 20 0C26.625 0 32 2.2375 32 5V6C32 7.9125 29.4188 9.575 25.625 10.4187C25.475 10.2437 25.3188 10.075 25.1625 9.91875C24.1938 8.9625 22.9438 8.2375 21.6375 7.7C19.0188 6.60625 15.6062 6.00625 12 6.00625C10.6313 6.00625 9.29375 6.09375 8.0125 6.2625C8 6.18125 8 6.09375 8 6.00625V6ZM27 22.0625V19.175C27.9438 18.9312 28.8313 18.6437 29.6375 18.3062C30.4625 17.9625 31.2687 17.5438 32 17.0375V18C32 19.675 30.0312 21.1562 27 22.0625ZM27 16.0625V14C27 13.7188 26.975 13.45 26.9375 13.1875C27.9062 12.9438 28.8125 12.65 29.6375 12.3C30.4625 11.95 31.2687 11.5375 32 11.0312V11.9937C32 13.6687 30.0312 15.15 27 16.0562V16.0625ZM0 15V14C0 11.2375 5.375 9 12 9C18.625 9 24 11.2375 24 14V15C24 17.7625 18.625 20 12 20C5.375 20 0 17.7625 0 15ZM24 21C24 23.7625 18.625 26 12 26C5.375 26 0 23.7625 0 21V20.0375C0.725 20.5438 1.53125 20.9562 2.3625 21.3062C4.98125 22.4 8.39375 23 12 23C15.6062 23 19.0188 22.3937 21.6375 21.3062C22.4625 20.9625 23.2687 20.5438 24 20.0375V21ZM24 26.0375V27C24 29.7625 18.625 32 12 32C5.375 32 0 29.7625 0 27V26.0375C0.725 26.5438 1.53125 26.9562 2.3625 27.3062C4.98125 28.4 8.39375 29 12 29C15.6062 29 19.0188 28.3937 21.6375 27.3062C22.4625 26.9625 23.2687 26.5438 24 26.0375Z" fill="#333333"/>
</svg>
