<svg width="32" height="32" viewBox="0 0 32 32" fill="none" xmlns="http://www.w3.org/2000/svg">
<path d="M16 32C24.8375 32 32 24.8375 32 16C32 7.1625 24.8375 0 16 0C7.1625 0 0 7.1625 0 16C0 24.8375 7.1625 32 16 32ZM19.1688 20.3188L10.15 23.7875C8.9375 24.2563 7.74375 23.0625 8.2125 21.85L11.6812 12.8312C11.8875 12.3 12.3 11.8875 12.8312 11.6812L21.85 8.2125C23.0625 7.74375 24.2563 8.9375 23.7875 10.15L20.3188 19.1688C20.1187 19.7 19.7 20.1125 19.1688 20.3188ZM18 16C18 14.8938 17.1063 14 16 14C14.8938 14 14 14.8938 14 16C14 17.1063 14.8938 18 16 18C17.1063 18 18 17.1063 18 16Z" fill="#55128A"/>
</svg>
