<svg width="24" height="24" viewBox="0 0 24 24" fill="none" xmlns="http://www.w3.org/2000/svg">
<g clip-path="url(#clip0_116_1323)">
<path d="M6.01859 2.40039C7.34234 2.40039 8.41859 3.47664 8.41859 4.80039C8.41859 6.12414 7.34234 7.20039 6.01859 7.20039C4.69484 7.20039 3.61859 6.12414 3.61859 4.80039C3.61859 3.47664 4.69484 2.40039 6.01859 2.40039ZM3.31859 20.4004V17.4004H2.65109C2.24234 17.4004 1.95359 16.9991 2.08109 16.6091L3.25109 13.1066L2.17484 14.5241C1.77359 15.0529 1.01984 15.1541 0.494839 14.7566C-0.0301606 14.3591 -0.138911 13.6016 0.262339 13.0766L2.47109 10.1629C3.31109 9.05289 4.62734 8.40039 6.01859 8.40039C7.40984 8.40039 8.72609 9.05289 9.56609 10.1629L11.7748 13.0766C12.1761 13.6054 12.0711 14.3591 11.5423 14.7566C11.0136 15.1541 10.2598 15.0529 9.86234 14.5241L8.78609 13.1066L9.95234 16.6091C10.0836 16.9991 9.79109 17.4004 9.38234 17.4004H8.71484V20.4004C8.71484 21.0641 8.17859 21.6004 7.51484 21.6004C6.85109 21.6004 6.31484 21.0641 6.31484 20.4004V17.4004H5.71484V20.4004C5.71484 21.0641 5.17859 21.6004 4.51484 21.6004C3.85109 21.6004 3.31484 21.0641 3.31484 20.4004H3.31859ZM18.0186 2.40039C19.3423 2.40039 20.4186 3.47664 20.4186 4.80039C20.4186 6.12414 19.3423 7.20039 18.0186 7.20039C16.6948 7.20039 15.6186 6.12414 15.6186 4.80039C15.6186 3.47664 16.6948 2.40039 18.0186 2.40039ZM17.7186 16.8004V20.4004C17.7186 21.0641 17.1823 21.6004 16.5186 21.6004C15.8548 21.6004 15.3186 21.0641 15.3186 20.4004V13.6691L14.8348 14.4379C14.4823 15.0004 13.7398 15.1654 13.1811 14.8129C12.6223 14.4604 12.4536 13.7179 12.8061 13.1591L14.7448 10.0804C15.4048 9.03414 16.5561 8.39664 17.7898 8.39664H18.2511C19.4886 8.39664 20.6398 9.03039 21.2961 10.0804L23.2348 13.1629C23.5873 13.7254 23.4186 14.4641 22.8598 14.8166C22.3011 15.1691 21.5586 15.0004 21.2061 14.4416L20.7223 13.6729V20.4041C20.7223 21.0679 20.1861 21.6041 19.5223 21.6041C18.8586 21.6041 18.3223 21.0679 18.3223 20.4041V16.8041H17.7223L17.7186 16.8004Z" fill="#55128A"/>
</g>
<defs>
<clipPath id="clip0_116_1323">
<rect width="24" height="24" fill="white"/>
</clipPath>
</defs>
</svg>
