<svg width="24" height="24" viewBox="0 0 24 24" fill="none" xmlns="http://www.w3.org/2000/svg">
<path d="M7.2225 3.36414C7.335 2.80539 7.82625 2.40039 8.4 2.40039H15.6C16.1738 2.40039 16.665 2.80539 16.7775 3.36414L17.88 8.88789C17.9587 9.28164 18 9.68289 18 10.0879V10.2004C18 13.1029 15.9375 15.5254 13.2 16.0804V20.4004H15.6C16.2638 20.4004 16.8 20.9366 16.8 21.6004C16.8 22.2641 16.2638 22.8004 15.6 22.8004H8.4C7.73625 22.8004 7.2 22.2641 7.2 21.6004C7.2 20.9366 7.73625 20.4004 8.4 20.4004H10.8V16.0804C8.0625 15.5254 6 13.1029 6 10.2004V10.0879C6 9.68664 6.04125 9.28539 6.12 8.88789L7.2225 3.36414ZM8.9025 7.20039H15.0938L14.6138 4.80039H9.3825L8.9025 7.20039Z" fill="#55128A"/>
</svg>
