<svg width="24" height="24" viewBox="0 0 24 24" fill="none" xmlns="http://www.w3.org/2000/svg">
<path d="M11.9998 2.40039C12.1986 2.40039 12.3861 2.50164 12.4986 2.66664C13.0911 3.54789 13.8748 5.05539 14.3436 6.75414C14.6173 7.74414 14.7861 8.82789 14.7298 9.90414C15.1648 9.57039 15.6186 9.27789 16.0761 9.01539C17.6136 8.14164 19.2411 7.63164 20.2836 7.42164C20.4786 7.38414 20.6848 7.44414 20.8236 7.58664C20.9623 7.72914 21.0261 7.93164 20.9886 8.13039C20.7786 9.16914 20.2648 10.7891 19.3873 12.3191C19.0461 12.9154 18.6411 13.5079 18.1686 14.0554C19.2148 14.3029 20.1373 14.7004 20.6923 15.0079C20.8836 15.1129 20.9998 15.3154 20.9998 15.5329C20.9998 15.7504 20.8798 15.9529 20.6923 16.0579C20.1223 16.3729 19.1586 16.7891 18.0748 17.0366C17.3173 17.2091 16.4661 17.3066 15.6298 17.2091L15.9411 18.4541C15.9973 18.6829 15.9186 18.9229 15.7348 19.0691C15.5511 19.2154 15.2998 19.2416 15.0898 19.1366L12.8998 18.0454V20.7004C12.8998 21.1991 12.4986 21.6004 11.9998 21.6004C11.5011 21.6004 11.0998 21.1991 11.0998 20.7004V18.0454L8.90609 19.1366C8.69609 19.2416 8.44484 19.2154 8.26109 19.0691C8.07734 18.9229 7.99859 18.6829 8.05484 18.4541L8.36609 17.2091C7.53359 17.3066 6.67859 17.2091 5.92109 17.0366C4.83734 16.7891 3.87734 16.3766 3.30359 16.0579C3.11234 15.9529 2.99609 15.7504 2.99609 15.5329C2.99609 15.3154 3.11609 15.1129 3.30359 15.0079L3.53609 14.8841C4.09859 14.5991 4.91609 14.2691 5.82734 14.0516C5.35859 13.5079 4.95359 12.9116 4.61234 12.3191C3.73484 10.7891 3.22109 9.16914 3.01109 8.13039C2.96984 7.93539 3.03359 7.72914 3.17609 7.58664C3.31859 7.44414 3.52109 7.38414 3.71609 7.42164C4.76234 7.62789 6.38609 8.14164 7.92359 9.01539C8.38109 9.27414 8.83484 9.57039 9.26609 9.90414C9.21359 8.82789 9.38234 7.74414 9.65234 6.75414C10.1211 5.05539 10.9048 3.54789 11.4973 2.66664L11.5423 2.60664C11.6586 2.47539 11.8236 2.40039 11.9998 2.40039Z" fill="#55128A"/>
</svg>
