<svg width="20" height="20" viewBox="0 0 20 20" fill="none" xmlns="http://www.w3.org/2000/svg">
<path d="M9.6 19.2C14.9025 19.2 19.2 14.9025 19.2 9.6C19.2 4.2975 14.9025 0 9.6 0C4.2975 0 0 4.2975 0 9.6C0 14.9025 4.2975 19.2 9.6 19.2ZM14.5013 11.5837C14.9475 11.445 15.3975 11.82 15.2362 12.2625C14.3962 14.5613 12.1875 16.2038 9.6 16.2038C7.0125 16.2038 4.80375 14.5575 3.96375 12.2587C3.8025 11.8162 4.2525 11.4412 4.69875 11.58C6.16875 12.0375 7.8375 12.2963 9.6 12.2963C11.3625 12.2963 13.0313 12.0375 14.5013 11.58V11.5837ZM12.3 7.35C11.8875 7.35 11.55 7.6875 11.55 8.1C11.55 8.5125 11.2125 8.85 10.8 8.85C10.3875 8.85 10.05 8.5125 10.05 8.1C10.05 6.85875 11.0588 5.85 12.3 5.85H12.9C14.1413 5.85 15.15 6.85875 15.15 8.1C15.15 8.5125 14.8125 8.85 14.4 8.85C13.9875 8.85 13.65 8.5125 13.65 8.1C13.65 7.6875 13.3125 7.35 12.9 7.35H12.3ZM6.6 6.6C7.26375 6.6 7.8 7.13625 7.8 7.8C7.8 8.46375 7.26375 9 6.6 9C5.93625 9 5.4 8.46375 5.4 7.8C5.4 7.13625 5.93625 6.6 6.6 6.6Z" fill="#55128A"/>
</svg>
