<svg width="24" height="24" viewBox="0 0 24 24" fill="none" xmlns="http://www.w3.org/2000/svg">
<path d="M12.0001 3.59961C8.97008 3.59961 6.54383 4.97961 4.77758 6.62211C3.02258 8.25336 1.84883 10.1996 1.29008 11.5384C1.16633 11.8346 1.16633 12.1646 1.29008 12.4609C1.84883 13.7996 3.02258 15.7496 4.77758 17.3771C6.54383 19.0159 8.97008 20.3996 12.0001 20.3996C15.0301 20.3996 17.4563 19.0196 19.2226 17.3771C20.9776 15.7459 22.1513 13.7996 22.7101 12.4609C22.8338 12.1646 22.8338 11.8346 22.7101 11.5384C22.1513 10.1996 20.9776 8.24961 19.2226 6.62211C17.4563 4.98336 15.0301 3.59961 12.0001 3.59961ZM6.60008 11.9996C6.60008 9.01836 9.01883 6.59961 12.0001 6.59961C14.9813 6.59961 17.4001 9.01836 17.4001 11.9996C17.4001 14.9809 14.9813 17.3996 12.0001 17.3996C9.01883 17.3996 6.60008 14.9809 6.60008 11.9996ZM12.0001 9.59961C12.0001 10.9234 10.9238 11.9996 9.60008 11.9996C9.16883 11.9996 8.76383 11.8871 8.41133 11.6846C8.37383 12.0934 8.40758 12.5134 8.52008 12.9296C9.03383 14.8496 11.0101 15.9896 12.9301 15.4759C14.8501 14.9621 15.9901 12.9859 15.4763 11.0659C15.0188 9.35211 13.3951 8.26086 11.6851 8.41086C11.8838 8.75961 12.0001 9.16461 12.0001 9.59961Z" fill="#55128A"/>
</svg>
