<svg width="24" height="24" viewBox="0 0 24 24" fill="none" xmlns="http://www.w3.org/2000/svg">
<g clip-path="url(#clip0_116_1273)">
<path d="M23.4051 4.34479L19.6551 0.594792C19.5144 0.454062 19.3235 0.375 19.1245 0.375C18.9255 0.375 18.7346 0.454062 18.5939 0.594792C18.4532 0.735523 18.3741 0.926394 18.3741 1.12542C18.3741 1.32444 18.4532 1.51531 18.5939 1.65604L18.8142 1.87542L13.1733 7.51542C11.0367 6.40354 8.64421 6.49635 7.19484 7.94479C6.81235 8.32892 6.51273 8.78743 6.31452 9.29198C6.25366 9.42876 6.15435 9.54491 6.02869 9.6263C5.90303 9.70769 5.75643 9.75081 5.60671 9.75042C4.2389 9.79635 3.05109 10.2867 2.17077 11.167C1.03827 12.3023 0.562024 13.9317 0.818899 15.757C1.06827 17.5035 1.97484 19.2332 3.37452 20.6254C4.77421 22.0176 6.50015 22.9279 8.24952 23.1773C8.56301 23.2241 8.87944 23.2486 9.1964 23.2504C10.6326 23.2504 11.8992 22.7601 12.8301 21.8292C13.7105 20.9489 14.2008 19.761 14.2467 18.3932C14.2466 18.2432 14.2901 18.0964 14.372 17.9707C14.4539 17.845 14.5707 17.7459 14.708 17.6854C15.2126 17.4873 15.6711 17.1877 16.0551 16.8051C17.5036 15.3557 17.5964 12.9614 16.4845 10.8267L22.1245 5.18573L22.3439 5.40604C22.4136 5.47572 22.4963 5.531 22.5874 5.56871C22.6784 5.60642 22.776 5.62583 22.8745 5.62583C22.9731 5.62583 23.0707 5.60642 23.1617 5.56871C23.2527 5.531 23.3355 5.47572 23.4051 5.40604C23.4748 5.33636 23.5301 5.25363 23.5678 5.16259C23.6055 5.07154 23.6249 4.97396 23.6249 4.87542C23.6249 4.77687 23.6055 4.67929 23.5678 4.58824C23.5301 4.4972 23.4748 4.41447 23.4051 4.34479ZM8.78015 19.2801C8.63951 19.4207 8.44882 19.4996 8.24999 19.4996C8.05117 19.4996 7.86048 19.4207 7.71984 19.2801L4.71984 16.2801C4.57923 16.1394 4.50029 15.9486 4.50038 15.7496C4.50046 15.5507 4.57958 15.3599 4.72031 15.2193C4.86104 15.0787 5.05186 14.9998 5.25079 14.9999C5.44973 15 5.64048 15.0791 5.78109 15.2198L8.78109 18.2198C8.92151 18.3606 9.00029 18.5513 9.00011 18.7501C8.99994 18.949 8.92082 19.1396 8.78015 19.2801ZM12.7308 14.9807C12.3637 15.3479 11.896 15.5981 11.3867 15.6994C10.8775 15.8008 10.3497 15.7489 9.86995 15.5502C9.39023 15.3516 8.9802 15.0151 8.69171 14.5834C8.40323 14.1517 8.24925 13.6442 8.24925 13.1249C8.24925 12.6057 8.40323 12.0982 8.69171 11.6665C8.9802 11.2348 9.39023 10.8983 9.86995 10.6997C10.3497 10.501 10.8775 10.4491 11.3867 10.5505C11.896 10.6518 12.3637 10.9019 12.7308 11.2692C13.2228 11.7614 13.4992 12.4289 13.4992 13.1249C13.4992 13.821 13.2228 14.4885 12.7308 14.9807ZM15.6426 9.54323C15.4661 9.32493 15.2783 9.1159 15.0801 8.91698C14.8811 8.71858 14.6718 8.53082 14.453 8.35448L16.4995 6.31073L17.6892 7.50042L15.6426 9.54323ZM18.7495 6.43917L17.5608 5.25042L19.8745 2.93573L21.0642 4.12542L18.7495 6.43917Z" fill="#55128A"/>
</g>
<defs>
<clipPath id="clip0_116_1273">
<rect width="24" height="24" fill="white"/>
</clipPath>
</defs>
</svg>
