<svg width="24" height="24" viewBox="0 0 24 24" fill="none" xmlns="http://www.w3.org/2000/svg">
<path d="M20.3889 12.4616C20.3964 12.3079 20.4002 12.1541 20.4002 12.0004C20.4002 6.69789 16.1027 2.40039 10.8002 2.40039C5.4977 2.40039 1.2002 6.69789 1.2002 12.0004C1.2002 17.3029 5.4977 21.6004 10.8002 21.6004C12.3527 21.6004 13.8189 21.2329 15.1164 20.5766C14.8314 19.9354 14.5127 19.1216 14.2989 18.2629C14.0102 17.1191 13.7702 15.4054 14.6064 13.9616L14.7077 13.7891C15.8139 11.8766 18.2589 11.2204 20.1714 12.3266C20.2464 12.3716 20.3214 12.4166 20.3927 12.4654L20.3889 12.4616ZM9.0002 13.8004C9.0002 13.4704 9.2702 13.2004 9.6002 13.2004H10.8002C11.7939 13.2004 12.6002 14.0066 12.6002 15.0004C12.6002 15.4616 12.4277 15.8816 12.1427 16.2004C12.4277 16.5191 12.6002 16.9391 12.6002 17.4004C12.6002 18.3941 11.7939 19.2004 10.8002 19.2004H9.6002C9.2702 19.2004 9.0002 18.9304 9.0002 18.6004C9.0002 18.2704 9.2702 18.0004 9.6002 18.0004H10.2002C10.5302 18.0004 10.8002 17.7304 10.8002 17.4004C10.8002 17.0704 10.5302 16.8004 10.2002 16.8004H9.6002C9.2702 16.8004 9.0002 16.5304 9.0002 16.2004C9.0002 15.8704 9.2702 15.6004 9.6002 15.6004H10.2002C10.5302 15.6004 10.8002 15.3304 10.8002 15.0004C10.8002 14.6704 10.5302 14.4004 10.2002 14.4004H9.6002C9.2702 14.4004 9.0002 14.1304 9.0002 13.8004ZM7.8002 9.00039C8.46395 9.00039 9.0002 9.53664 9.0002 10.2004C9.0002 10.8641 8.46395 11.4004 7.8002 11.4004C7.13645 11.4004 6.6002 10.8641 6.6002 10.2004C6.6002 9.53664 7.13645 9.00039 7.8002 9.00039ZM13.5002 9.75039C13.0877 9.75039 12.7502 10.0879 12.7502 10.5004C12.7502 10.9129 12.4127 11.2504 12.0002 11.2504C11.5877 11.2504 11.2502 10.9129 11.2502 10.5004C11.2502 9.25914 12.2589 8.25039 13.5002 8.25039H14.1002C15.3414 8.25039 16.3502 9.25914 16.3502 10.5004C16.3502 10.9129 16.0127 11.2504 15.6002 11.2504C15.1877 11.2504 14.8502 10.9129 14.8502 10.5004C14.8502 10.0879 14.5127 9.75039 14.1002 9.75039H13.5002ZM20.3552 15.5254C20.2727 14.8391 19.8714 14.2279 19.2714 13.8829C18.2177 13.2754 16.8752 13.6354 16.2677 14.6891L16.1664 14.8616C15.2477 16.4554 16.4627 19.2829 17.0814 20.5166C17.2727 20.8954 17.6627 21.1204 18.0864 21.0979C19.4627 21.0154 22.5189 20.6591 23.4414 19.0654L23.5427 18.8929C24.1502 17.8391 23.7902 16.4966 22.7364 15.8891C22.1364 15.5441 21.4089 15.4991 20.7714 15.7729L20.4039 15.9304L20.3552 15.5329V15.5254Z" fill="#55128A"/>
</svg>
