<svg width="24" height="24" viewBox="0 0 24 24" fill="none" xmlns="http://www.w3.org/2000/svg">
<g clip-path="url(#clip0_116_1348)">
<path d="M8.4 13.5002C8.4 13.9989 7.99875 14.4002 7.5 14.4002C7.00125 14.4002 6.6 13.9989 6.6 13.5002V9.27765L9.9075 4.7889C10.3988 4.1214 10.2563 3.1839 9.58875 2.69265C8.92125 2.2014 7.98375 2.3439 7.4925 3.0114L3.99375 7.7589C3.34875 8.63265 3 9.6939 3 10.7852V14.9364L0.82125 15.6639C0.33 15.8252 0 16.2827 0 16.8002V20.4002C0 20.7752 0.17625 21.1314 0.47625 21.3564C0.77625 21.5814 1.16625 21.6564 1.53 21.5514L7.32 19.8977C9.3825 19.3089 10.8 17.4264 10.8 15.2814V10.8002C10.8 10.1364 10.2638 9.60015 9.6 9.60015C8.93625 9.60015 8.4 10.1364 8.4 10.8002V13.5002ZM15.6 13.5002V10.8002C15.6 10.1364 15.0638 9.60015 14.4 9.60015C13.7363 9.60015 13.2 10.1364 13.2 10.8002V15.2852C13.2 17.4302 14.6213 19.3127 16.68 19.9014L22.47 21.5552C22.8338 21.6602 23.22 21.5852 23.5238 21.3602C23.8275 21.1352 24 20.7752 24 20.4002V16.8002C24 16.2827 23.67 15.8252 23.1787 15.6602L21 14.9327V10.7814C21 9.6939 20.6513 8.63265 20.0063 7.75515L16.5075 3.0114C16.0163 2.3439 15.0787 2.2014 14.4113 2.69265C13.7438 3.1839 13.6012 4.1214 14.0925 4.7889L17.4 9.27765V13.5002C17.4 13.9989 16.9988 14.4002 16.5 14.4002C16.0013 14.4002 15.6 13.9989 15.6 13.5002Z" fill="#55128A"/>
</g>
<defs>
<clipPath id="clip0_116_1348">
<rect width="24" height="24" fill="white"/>
</clipPath>
</defs>
</svg>
