<svg width="24" height="24" viewBox="0 0 24 24" fill="none" xmlns="http://www.w3.org/2000/svg">
<path d="M4.80039 10.1998C4.80039 10.4923 4.96539 10.9011 5.44164 11.3361C7.14414 10.4286 9.48039 9.8998 12.0004 9.8998C14.5204 9.8998 16.8566 10.4286 18.5591 11.3361C19.0391 10.9011 19.2004 10.4923 19.2004 10.1998C19.2004 9.73855 18.7954 8.9998 17.4041 8.3023C16.0841 7.6423 14.1754 7.1998 12.0004 7.1998C9.82539 7.1998 7.91664 7.6423 6.59664 8.3023C5.20539 8.9998 4.80039 9.73855 4.80039 10.1998ZM12.0004 11.6998C10.2379 11.6998 8.65164 11.9848 7.39164 12.4386C8.63664 12.9036 10.2304 13.1998 12.0004 13.1998C13.7704 13.1998 15.3641 12.9073 16.6091 12.4386C15.3491 11.9848 13.7629 11.6998 12.0004 11.6998ZM2.40039 10.1998C2.40039 8.3398 3.87789 6.9823 5.52414 6.1573C7.24164 5.29855 9.53664 4.7998 12.0004 4.7998C14.4641 4.7998 16.7591 5.29855 18.4766 6.1573C20.1229 6.9823 21.6004 8.3398 21.6004 10.1998V13.7998C21.6004 15.6598 20.1229 17.0173 18.4766 17.8423C16.7554 18.7011 14.4641 19.1998 12.0004 19.1998C9.53664 19.1998 7.24164 18.7011 5.52414 17.8423C3.87789 17.0173 2.40039 15.6598 2.40039 13.7998V10.1998Z" fill="#55128A"/>
</svg>
