<svg width="24" height="24" viewBox="0 0 24 24" fill="none" xmlns="http://www.w3.org/2000/svg">
<path d="M14.7002 2.40039C15.1989 2.40039 15.6002 2.80164 15.6002 3.30039V4.01289C15.6002 5.52414 16.2002 6.97539 17.2689 8.04414L18.0564 8.83164C18.7877 9.56289 19.2002 10.5529 19.2002 11.5879V12.3004C19.2002 12.7991 18.7989 13.2004 18.3002 13.2004C17.8014 13.2004 17.4002 12.7991 17.4002 12.3004V11.5879C17.4002 11.0291 17.1789 10.4966 16.7852 10.1029L15.9977 9.31539C14.5914 7.90914 13.8002 6.00039 13.8002 4.01289V3.30039C13.8002 2.80164 14.2014 2.40039 14.7002 2.40039ZM21.9002 13.2004C21.4014 13.2004 21.0002 12.7991 21.0002 12.3004V11.5879C21.0002 10.0766 20.4002 8.62539 19.3314 7.55664L18.5439 6.76914C17.8127 6.03789 17.4002 5.04789 17.4002 4.01289V3.30039C17.4002 2.80164 17.8014 2.40039 18.3002 2.40039C18.7989 2.40039 19.2002 2.80164 19.2002 3.30039V4.01289C19.2002 4.57164 19.4214 5.10414 19.8152 5.49789L20.6027 6.28539C22.0089 7.69164 22.8002 9.60039 22.8002 11.5879V12.3004C22.8002 12.7991 22.3989 13.2004 21.9002 13.2004ZM13.2002 19.2004H16.8002V18.0004H13.2002V19.2004ZM1.2002 18.0004C1.2002 16.6766 2.27645 15.6004 3.6002 15.6004H18.0002C18.6639 15.6004 19.2002 16.1366 19.2002 16.8004V20.4004C19.2002 21.0641 18.6639 21.6004 18.0002 21.6004H3.6002C2.27645 21.6004 1.2002 20.5241 1.2002 19.2004V18.0004ZM22.8002 16.5004V20.7004C22.8002 21.1991 22.3989 21.6004 21.9002 21.6004C21.4014 21.6004 21.0002 21.1991 21.0002 20.7004V16.5004C21.0002 16.0016 21.4014 15.6004 21.9002 15.6004C22.3989 15.6004 22.8002 16.0016 22.8002 16.5004Z" fill="#55128A"/>
</svg>
