<svg width="24" height="24" viewBox="0 0 24 24" fill="none" xmlns="http://www.w3.org/2000/svg">
<path d="M14.1002 3.3002C14.1002 2.14145 13.159 1.2002 12.0002 1.2002C10.8415 1.2002 9.90022 2.14145 9.90022 3.3002C9.90022 4.45895 10.8415 5.4002 12.0002 5.4002C13.159 5.4002 14.1002 4.45895 14.1002 3.3002ZM15.0002 11.2764L16.7365 13.6164C17.1302 14.1489 17.884 14.2614 18.4165 13.8639C18.949 13.4664 19.0615 12.7164 18.664 12.1839L16.0202 8.62145C15.0752 7.3502 13.5865 6.6002 12.0002 6.6002C10.414 6.6002 8.92522 7.3502 7.98022 8.62145L5.33647 12.1839C4.94272 12.7164 5.05147 13.4664 5.58397 13.8639C6.11647 14.2614 6.86647 14.1489 7.26397 13.6164L9.00022 11.2764V21.6002C9.00022 22.2639 9.53647 22.8002 10.2002 22.8002C10.864 22.8002 11.4002 22.2639 11.4002 21.6002V15.6002C11.4002 15.2702 11.6702 15.0002 12.0002 15.0002C12.3302 15.0002 12.6002 15.2702 12.6002 15.6002V21.6002C12.6002 22.2639 13.1365 22.8002 13.8002 22.8002C14.464 22.8002 15.0002 22.2639 15.0002 21.6002V11.2764Z" fill="#55128A"/>
</svg>
