<svg width="24" height="24" viewBox="0 0 24 24" fill="none" xmlns="http://www.w3.org/2000/svg">
<path d="M21.3149 1.41406C21.6824 1.28281 22.0874 1.37656 22.3649 1.65031C22.6424 1.92406 22.7324 2.33281 22.6012 2.70031L15.9262 21.3341C15.7387 21.8553 15.2474 22.2003 14.6962 22.2003C14.1637 22.2003 13.6837 21.8778 13.4849 21.3866L11.0774 15.4616C10.9087 15.0491 10.9837 14.5766 11.2724 14.2391L14.8162 10.0241C15.0074 9.79531 14.9924 9.46156 14.7824 9.25156C14.5724 9.04156 14.2349 9.02656 14.0099 9.21781L9.79494 12.7541C9.45369 13.0391 8.98494 13.1141 8.57244 12.9491L2.62869 10.5303C2.13744 10.3316 1.81494 9.85156 1.81494 9.31906C1.81494 8.76781 2.15994 8.27656 2.68119 8.08906L21.3149 1.41406Z" fill="#55128A"/>
</svg>
