<svg width="24" height="24" viewBox="0 0 24 24" fill="none" xmlns="http://www.w3.org/2000/svg">
<path d="M14.9999 15.6004C18.6449 15.6004 21.5999 12.6454 21.5999 9.00039C21.5999 5.35539 18.6449 2.40039 14.9999 2.40039C11.3549 2.40039 8.3999 5.35539 8.3999 9.00039C8.3999 9.70164 8.50865 10.3804 8.71115 11.0141L2.6624 17.0629C2.49365 17.2316 2.3999 17.4604 2.3999 17.7004V20.7004C2.3999 21.1991 2.80115 21.6004 3.2999 21.6004H6.2999C6.79865 21.6004 7.1999 21.1991 7.1999 20.7004V19.2004H8.6999C9.19865 19.2004 9.5999 18.7991 9.5999 18.3004V16.8004H11.0999C11.3399 16.8004 11.5687 16.7066 11.7374 16.5379L12.9862 15.2891C13.6199 15.4916 14.2987 15.6004 14.9999 15.6004ZM16.4999 6.00039C17.3287 6.00039 17.9999 6.67164 17.9999 7.50039C17.9999 8.32914 17.3287 9.00039 16.4999 9.00039C15.6712 9.00039 14.9999 8.32914 14.9999 7.50039C14.9999 6.67164 15.6712 6.00039 16.4999 6.00039Z" fill="#55128A"/>
</svg>
